<?xml version="1.0" encoding="UTF-8"?>
<svg width="60px" height="60px" viewBox="0 0 60 60" version="1.1" xmlns="http://www.w3.org/2000/svg" xmlns:xlink="http://www.w3.org/1999/xlink">
    <title>centos</title>
    <defs>
        <path id="path-1" d="M0,54 a 6 6 0 0 0 6 6 h54 v-60 h-54 a 6 6 0 0 0 -6 6z"/>
    </defs>
    <g id="Iland-Cloud" stroke="none" stroke-width="1" fill="none" fill-rule="evenodd">
        <g id="VM-Logo-Library" transform="translate(-43.000000, -767.000000)">
            <g id="centos_rounded" transform="translate(43.000000, 767.000000)">
                <g id="Rectangle-13">
                    <use fill="#FFFFFF" fill-rule="evenodd" xlink:href="#path-1"></use>
                </g>
                <g id="g3617"
                   transform="matrix(0.03802281,0,0,0.03802281,10,11.065)">
                    <path d="M 0.00 0.00 L 1052.00 0.00 L 1052.00 996.00 L 0.00 996.00 L 0.00 0.00 Z" fill="#ffffff" />
                    <path d="M 528.03 17.21 C 531.61 20.17 534.69 23.67 538.07 26.93 C 570.06 58.95 602.08 90.92 634.07 122.93 C 636.88 125.67 639.63 128.44 642.21 131.39 C 611.62 131.64 581.01 131.43 550.41 131.50 C 550.23 138.34 550.34 145.16 550.33 152.00 C 550.34 232.00 550.30 312.01 550.34 392.00 C 550.13 395.44 551.25 399.84 548.43 402.39 C 542.49 408.45 536.43 414.41 530.44 420.42 C 529.22 421.91 527.76 422.00 526.40 420.63 C 519.79 413.91 513.13 407.21 506.38 400.63 C 506.18 315.44 506.36 230.20 506.29 145.00 C 506.18 140.31 506.77 136.03 505.67 131.42 C 475.46 131.59 445.24 131.49 415.03 131.47 C 416.08 128.06 418.66 126.48 421.01 124.02 C 454.30 90.72 487.60 57.44 520.89 24.14 C 523.24 21.78 525.52 19.41 528.03 17.21 Z" fill="#fcea00" />
                    <path d="M 196.57 154.51 C 201.45 153.12 206.93 154.38 212.00 153.82 C 256.92 153.71 302.06 153.83 347.00 153.76 C 350.83 153.63 354.53 153.81 358.31 154.45 C 357.23 155.66 356.14 156.85 355.02 158.02 C 335.48 177.48 316.04 197.04 296.48 216.48 C 295.57 217.58 294.08 218.56 294.27 220.13 C 296.11 222.70 298.66 224.88 300.88 227.12 C 361.39 287.61 421.88 348.14 482.41 408.60 C 483.97 410.08 483.54 412.02 483.70 414.00 C 483.62 422.91 483.65 431.81 483.64 440.72 C 481.09 441.24 478.60 441.49 476.00 441.40 C 469.32 441.22 462.64 441.47 455.97 441.36 C 452.47 441.58 450.69 438.74 448.40 436.61 C 387.25 375.42 326.03 314.29 264.89 253.10 C 263.95 252.26 262.87 251.69 261.77 251.08 C 242.18 271.05 222.18 290.63 202.52 310.52 C 200.63 312.44 198.64 314.24 196.61 316.01 C 196.44 312.00 196.43 308.00 196.47 304.00 C 196.46 257.33 196.47 210.67 196.47 164.00 C 196.49 160.85 196.28 157.65 196.57 154.51 Z" fill="#e5f477" />
                    <path d="M 393.98 153.77 C 417.65 153.78 441.32 153.78 465.00 153.78 C 471.26 153.85 477.43 153.45 483.67 154.29 C 483.55 228.59 483.78 302.94 483.55 377.24 C 480.95 375.55 478.76 373.62 476.65 371.35 C 426.22 320.85 375.67 270.43 325.25 219.93 C 327.25 217.71 329.31 215.54 331.46 213.46 C 349.78 195.12 368.15 176.82 386.44 158.45 C 388.81 156.28 390.35 153.51 393.98 153.77 Z" fill="#e5f477" />
                    <path d="M 572.66 153.90 C 600.77 153.81 628.89 153.90 657.00 153.85 C 659.64 153.85 662.37 153.67 664.99 154.02 C 667.10 154.85 668.73 157.10 670.37 158.63 C 688.81 177.18 707.37 195.64 725.85 214.15 C 727.51 215.92 729.95 217.67 730.87 219.94 C 728.95 222.55 726.32 224.73 724.04 227.03 C 676.55 274.55 629.03 322.03 581.53 369.53 C 578.63 372.39 575.99 375.43 572.70 377.87 C 572.44 369.92 572.64 361.95 572.58 354.00 C 572.63 287.31 572.47 220.58 572.66 153.90 Z" fill="#e49cdb" />
                    <path d="M 697.52 154.01 C 701.68 153.83 705.84 153.82 710.00 153.86 C 755.67 153.87 801.33 153.86 847.00 153.87 C 851.27 153.82 855.53 153.85 859.80 153.98 C 859.82 208.06 859.87 262.15 859.78 316.23 C 856.19 313.15 852.97 309.72 849.63 306.38 C 831.10 287.92 812.69 269.31 794.04 250.97 C 732.46 312.40 670.99 373.97 609.47 435.47 C 607.14 437.57 604.52 441.67 601.02 441.27 C 591.58 441.26 582.13 441.32 572.69 441.21 C 572.47 431.81 572.62 422.39 572.56 412.99 C 572.09 409.00 576.00 406.94 578.30 404.31 C 639.79 342.77 701.45 281.33 762.85 219.72 C 742.21 198.84 721.31 178.22 700.61 157.40 C 699.56 156.29 698.54 155.15 697.52 154.01 Z" fill="#e49cdb" />
                    <path d="M 264.44 284.55 C 315.46 335.51 366.54 386.65 417.57 437.62 C 418.63 438.75 419.64 439.94 420.65 441.12 C 416.10 441.42 411.55 441.40 407.00 441.35 C 336.87 441.32 266.75 441.35 196.62 441.34 C 196.48 437.56 196.41 433.78 196.45 430.00 C 196.51 402.81 196.41 375.62 196.50 348.44 C 217.68 327.18 239.21 305.76 260.45 284.42 C 261.83 282.95 263.09 283.21 264.44 284.55 Z" fill="#e5f477" />
                    <path d="M 794.09 282.58 C 797.44 285.42 800.24 288.53 803.37 291.63 C 820.04 308.29 836.71 324.96 853.38 341.63 C 855.44 343.77 857.99 345.74 859.60 348.25 C 860.05 351.11 859.81 354.11 859.83 357.00 C 859.79 385.03 859.87 413.07 859.79 441.10 C 853.53 441.42 847.27 441.23 841.00 441.27 C 778.00 441.27 715.00 441.27 652.00 441.27 C 646.57 441.26 641.15 441.37 635.72 441.12 C 639.36 436.60 643.69 432.88 647.70 428.70 C 693.88 382.54 740.05 336.38 786.22 290.22 C 788.82 287.61 791.29 284.98 794.09 282.58 Z" fill="#e49cdb" />
                    <path d="M 174.03 370.91 C 174.33 375.94 174.24 380.97 174.22 386.00 C 174.28 411.84 174.15 437.68 174.29 463.51 C 263.93 463.42 353.59 463.58 443.23 463.43 C 449.17 468.92 454.68 474.88 460.52 480.48 C 462.25 482.14 463.81 483.94 465.33 485.79 C 458.00 492.97 450.84 500.31 443.52 507.50 C 358.03 507.68 272.50 507.51 187.00 507.58 C 182.73 507.52 178.48 507.51 174.21 507.75 C 174.25 534.50 174.22 561.25 174.23 588.00 C 174.29 592.06 174.24 596.11 174.01 600.16 C 171.18 597.62 168.50 594.91 165.83 592.20 C 130.27 556.70 94.73 521.18 59.22 485.63 C 63.72 480.66 68.67 476.14 73.34 471.34 C 104.18 440.51 134.99 409.65 165.86 378.85 C 168.51 376.12 171.20 373.45 174.03 370.91 Z" fill="#e49cdb" />
                    <path d="M 882.35 370.81 C 885.85 373.92 889.07 377.30 892.39 380.61 C 924.89 413.11 957.39 445.61 989.89 478.10 C 992.46 480.53 994.95 483.01 997.23 485.72 C 959.87 522.85 922.72 560.21 885.42 597.41 C 884.41 598.36 883.39 599.31 882.37 600.25 C 882.20 569.38 882.39 538.50 882.28 507.64 C 793.23 507.49 704.04 507.60 614.97 507.58 C 612.37 507.84 610.85 505.41 609.13 503.87 C 603.33 497.69 596.91 492.03 591.27 485.73 C 591.63 484.54 592.83 483.57 593.64 482.66 C 600.12 476.32 606.48 469.87 612.92 463.49 C 699.28 463.46 785.64 463.50 872.00 463.47 C 875.35 463.46 878.69 463.50 882.04 463.56 C 882.36 459.70 882.39 455.87 882.30 452.00 C 882.35 424.94 882.24 397.87 882.35 370.81 Z" fill="#aea5dc" />
                    <path d="M 196.61 529.79 C 267.73 529.69 338.87 529.79 410.00 529.74 C 413.56 529.71 417.11 529.75 420.66 529.88 C 418.48 532.63 416.09 535.13 413.54 537.54 C 365.86 585.19 318.20 632.85 270.52 680.51 C 267.81 683.28 265.05 685.98 262.22 688.63 C 240.38 666.72 218.50 644.84 196.57 623.01 C 196.48 591.94 196.42 560.86 196.61 529.79 Z" fill="#aea5dc" />
                    <path d="M 458.00 529.71 C 466.58 529.91 475.18 529.49 483.74 529.96 C 483.73 539.64 483.77 549.35 483.75 559.03 C 484.10 561.85 480.65 564.08 478.97 565.99 C 417.20 627.67 355.45 689.45 293.72 751.18 C 295.96 753.98 298.44 756.49 301.04 758.94 C 318.40 776.25 335.72 793.62 353.07 810.94 C 355.11 812.90 357.04 814.96 358.93 817.07 C 304.83 817.29 250.66 817.10 196.55 817.16 C 196.50 763.06 196.44 708.94 196.58 654.85 C 200.20 657.76 203.19 661.25 206.54 664.46 C 225.07 683.02 243.66 701.52 262.18 720.09 C 264.64 717.90 266.99 715.65 269.25 713.26 C 329.92 652.59 390.59 591.92 451.27 531.27 C 453.21 529.21 455.45 529.86 458.00 529.71 Z" fill="#aea5dc" />
                    <path d="M 600.00 530.26 C 601.46 530.43 603.73 529.97 604.73 531.26 C 618.94 545.75 633.52 559.91 647.68 574.45 C 645.31 572.77 643.13 570.99 641.16 568.84 C 638.58 566.07 635.46 563.93 632.92 561.14 C 626.19 553.24 618.36 546.32 611.19 538.81 C 608.95 536.62 606.45 533.50 603.40 532.55 C 600.41 531.77 597.07 531.97 594.00 531.96 C 587.72 532.13 581.43 531.74 575.18 532.18 C 574.72 539.43 575.17 546.73 574.94 554.00 C 575.07 556.46 574.47 559.79 576.30 561.69 C 583.04 570.04 591.21 577.48 598.85 585.15 C 600.15 586.48 600.91 588.07 601.79 589.68 C 591.93 580.17 582.41 570.30 572.64 560.70 C 572.57 550.63 572.56 540.56 572.63 530.50 C 581.73 530.07 590.88 530.42 600.00 530.26 Z" fill="#fcea00" />
                    <path d="M 636.72 530.49 C 642.48 530.16 648.23 530.32 654.00 530.30 C 722.56 530.31 791.12 530.30 859.69 530.31 C 859.74 557.54 859.69 584.77 859.71 612.00 C 859.75 615.68 859.72 619.35 859.51 623.02 C 843.23 638.88 827.24 655.09 811.14 671.13 C 805.88 676.67 800.10 681.73 795.07 687.48 C 794.51 687.52 793.95 687.56 793.39 687.60 C 743.86 637.81 694.06 588.27 644.45 538.56 C 641.77 535.96 639.14 533.34 636.72 530.49 Z" fill="#fcea00" />
                    <path d="M 575.18 532.18 C 581.43 531.74 587.72 532.13 594.00 531.96 C 597.07 531.97 600.41 531.77 603.40 532.55 C 606.45 533.50 608.95 536.62 611.19 538.81 C 618.36 546.32 626.19 553.24 632.92 561.14 C 635.46 563.93 638.58 566.07 641.16 568.84 C 643.13 570.99 645.31 572.77 647.68 574.45 C 653.91 580.17 659.60 586.46 665.71 592.29 C 700.28 626.83 734.69 661.17 769.22 695.76 C 777.05 703.72 785.22 711.32 792.77 719.56 C 793.62 719.56 794.47 719.56 795.32 719.57 C 816.63 698.03 838.19 676.73 859.55 655.23 C 859.82 661.49 859.68 667.74 859.71 674.00 C 859.71 717.67 859.71 761.33 859.71 805.00 C 859.76 809.13 859.72 813.26 859.52 817.39 C 806.07 817.33 752.62 817.33 699.17 817.38 C 699.50 816.38 699.54 815.08 700.33 814.35 C 720.07 794.91 739.71 774.93 759.43 755.44 C 760.55 754.16 762.57 752.66 762.57 750.85 C 760.82 748.54 758.53 746.57 756.50 744.51 C 724.00 712.01 691.49 679.51 658.98 647.01 C 639.95 627.89 620.71 608.91 601.79 589.68 C 600.91 588.07 600.15 586.48 598.85 585.15 C 591.21 577.48 583.04 570.04 576.30 561.69 C 574.47 559.79 575.07 556.46 574.94 554.00 C 575.17 546.73 574.72 539.43 575.18 532.18 Z" fill="#fcea00" />
                    <path d="M 528.24 548.59 C 535.24 554.91 541.71 561.95 548.49 568.54 C 551.25 571.02 550.14 574.65 550.35 578.00 C 550.28 658.66 550.34 739.34 550.32 820.00 C 550.36 826.53 550.20 833.06 550.45 839.59 C 575.63 839.56 600.82 839.57 626.00 839.59 C 631.60 839.63 637.15 839.32 642.74 839.90 C 636.74 846.18 630.48 852.20 624.39 858.39 C 594.36 888.36 564.40 918.40 534.36 948.36 C 532.60 950.13 530.91 952.20 528.84 953.60 C 526.72 953.77 524.93 950.81 523.44 949.56 C 486.89 912.82 450.09 876.29 413.52 839.56 C 444.20 839.68 474.90 839.38 505.57 839.72 C 506.65 835.81 506.28 831.99 506.28 828.00 C 506.29 745.67 506.28 663.33 506.29 581.00 C 506.35 577.43 505.96 573.71 506.54 570.19 C 509.09 566.67 512.77 563.93 515.71 560.71 C 519.92 556.74 523.76 552.25 528.24 548.59 Z" fill="#e5f477" />
                    <path d="M 483.71 592.84 C 483.80 667.58 483.71 742.33 483.76 817.07 C 454.51 817.31 425.25 817.05 396.00 817.21 C 394.37 817.20 392.67 817.21 391.06 816.93 C 388.69 815.47 386.80 813.11 384.82 811.17 C 364.90 791.19 344.89 771.29 325.00 751.27 C 374.60 701.78 424.12 652.20 473.69 602.68 C 476.99 599.36 480.24 595.99 483.71 592.84 Z" fill="#aea5dc" />
                    <path d="M 575.30 595.59 C 626.87 647.04 679.30 699.50 730.88 751.08 C 718.10 764.53 704.62 777.36 691.65 790.65 C 682.47 799.49 673.82 808.97 664.32 817.45 C 635.21 817.22 606.08 817.42 576.97 817.35 C 575.41 817.30 574.03 816.83 572.54 816.42 C 572.65 742.69 572.60 668.94 572.56 595.21 C 573.47 595.32 574.39 595.45 575.30 595.59 Z" fill="#fcea00" />
                </g>
            </g>
        </g>
    </g>
</svg>
