<?xml version="1.0" encoding="UTF-8"?>
<svg width="60px" height="60px" viewBox="0 0 60 60" version="1.1" xmlns="http://www.w3.org/2000/svg" xmlns:xlink="http://www.w3.org/1999/xlink">
    <!-- Generator: sketchtool 53.1 (72631) - https://sketchapp.com -->
    <title>86C677CE-0997-4983-A99C-B9426E98CF0C</title>
    <desc>Created with sketchtool.</desc>
    <g id="Secure-Cloud-V9" stroke="none" stroke-width="1" fill="none" fill-rule="evenodd">
        <g id="VM-Logo-Library" transform="translate(-49.000000, -767.000000)">
            <g id="centos_square" transform="translate(49.000000, 767.000000)">
                <path d="M0,6.0000383 C0,2.68630865 2.69463714,0 6.0000383,0 L60,0 L60,60 L6.0000383,60 C2.68630865,60 0,57.3053629 0,53.9999617 L0,6.0000383 Z" id="Rectangle-14" fill="#262577"></path>
                <g id="centos-seeklogo.com" transform="translate(9.000000, 9.000000)" fill-rule="nonzero">
                    <path d="M17.2600092,19.9097831 L18.7831235,21.4273039 L17.2600092,22.9445313 L6.53846796,22.9445313 L6.53846796,28 L0,21.4273039 L6.53846796,14.9649304 L6.53846796,19.9097831 L17.2600092,19.9097831 L17.2600092,19.9097831 L17.2600092,19.9097831 L17.2600092,19.9097831 Z M21.9728485,7 L35,7 L35,20.0523808 L21.9728485,20.0523808 L21.9728485,7 L21.9728485,7 L21.9728485,7 L21.9728485,7 Z" id="Shape" fill="#932279"></path>
                    <path d="M22.0902169,17.2598648 L20.5729895,18.7829664 L19.0557621,17.2598648 L19.0557621,6.53841326 L14,6.53841326 L20.5729895,0 L27.0350695,6.53841326 L22.0902169,6.53841326 L22.0902169,17.2598648 L22.0902169,17.2598648 L22.0902169,17.2598648 L22.0902169,17.2598648 Z M21.9479125,21.9726647 L35,21.9726647 L35,35 L21.9479125,35 L21.9479125,21.9726647 L21.9479125,21.9726647 L21.9479125,21.9726647 L21.9479125,21.9726647 Z" id="Shape" fill="#EFA724"></path>
                    <path d="M24.7401353,22.0901038 L23.2167409,20.5728976 L24.7401353,19.0556914 L35.4612941,19.0556914 L35.4612941,14 L42,20.5728976 L35.4612941,27.0348874 L35.4612941,22.0901038 L24.7401353,22.0901038 L24.7401353,22.0901038 L24.7401353,22.0901038 L24.7401353,22.0901038 Z M7,21.9478015 L20.0270424,21.9478015 L20.0270424,35 L7,35 L7,21.9478015 L7,21.9478015 L7,21.9478015 L7,21.9478015 Z" id="Shape" fill="#262577"></path>
                    <path d="M19.9097831,24.7401353 L21.4270105,23.2167409 L22.9445313,24.7401353 L22.9445313,35.4615869 L28,35.4615869 L21.4270105,42 L14.9652238,35.4615869 L19.9097831,35.4615869 L19.9097831,24.7401353 L19.9097831,24.7401353 L19.9097831,24.7401353 L19.9097831,24.7401353 Z M7,7 L20.0520873,7 L20.0520873,20.0273353 L7,20.0273353 L7,7 L7,7 L7,7 L7,7 Z" id="Shape" fill="#9CCD2A"></path>
                    <path d="M6,6 L20.0624908,6 L20.0624908,20.0623525 L6,20.0623525 L6,6 L6,6 L6,6 L6,6 L6,6 Z M6.93736169,19.1249999 L19.124834,19.1249999 L19.124834,6.93764753 L6.93736169,6.93764753 L6.93736169,19.1249999 L6.93736169,19.1249999 L6.93736169,19.1249999 L6.93736169,19.1249999 Z M21.9375091,6 L36,6 L36,20.0623525 L21.9375091,20.0623525 L21.9375091,6 L21.9375091,6 L21.9375091,6 L21.9375091,6 Z M22.8748709,19.1249999 L35.0623432,19.1249999 L35.0623432,6.93764753 L22.8748709,6.93764753 L22.8748709,19.1249999 L22.8748709,19.1249999 L22.8748709,19.1249999 L22.8748709,19.1249999 Z M21.9375091,21.9373524 L36,21.9373524 L36,36 L21.9375091,36 L21.9375091,21.9373524 L21.9375091,21.9373524 L21.9375091,21.9373524 L21.9375091,21.9373524 Z M22.8748709,35.0620574 L35.0623432,35.0620574 L35.0623432,22.874705 L22.8748709,22.874705 L22.8748709,35.0620574 L22.8748709,35.0620574 L22.8748709,35.0620574 L22.8748709,35.0620574 Z M6,21.9373524 L20.0624908,21.9373524 L20.0624908,36 L6,36 L6,21.9373524 L6,21.9373524 L6,21.9373524 L6,21.9373524 Z M6.93736169,35.0620574 L19.124834,35.0620574 L19.124834,22.874705 L6.93736169,22.874705 L6.93736169,35.0620574 L6.93736169,35.0620574 L6.93736169,35.0620574 L6.93736169,35.0620574 L6.93736169,35.0620574 Z" id="Shape" fill="#FFFFFF"></path>
                    <path d="M9.84398732,30.8439873 L0,21 L9.84369526,11.1563048 L19.6876826,21 L9.84398732,30.8439873 L9.84398732,30.8439873 L9.84398732,30.8439873 L9.84398732,30.8439873 L9.84398732,30.8439873 L9.84398732,30.8439873 Z M1.31260953,21 L9.84398732,29.5313777 L18.375073,21 L9.84369526,12.4689143 L1.31260953,21 L1.31260953,21 L1.31260953,21 L1.31260953,21 Z M21,19.6876826 L11.1563048,9.84398732 L21,0 L30.8436953,9.84398732 L21,19.6876826 L21,19.6876826 L21,19.6876826 L21,19.6876826 Z M12.4689143,9.84398732 L21,18.375073 L29.5313777,9.84398732 L21,1.31260953 L12.4689143,9.84398732 L12.4689143,9.84398732 L12.4689143,9.84398732 L12.4689143,9.84398732 Z M32.1563049,30.8439873 L22.3126095,21 L32.1563049,11.1563048 L42,21 L32.1563049,30.8439873 L32.1563049,30.8439873 L32.1563049,30.8439873 L32.1563049,30.8439873 Z M23.6249271,21 L32.1563049,29.5313777 L40.6873904,21 L32.1563049,12.4689143 L23.6249271,21 L23.6249271,21 L23.6249271,21 L23.6249271,21 Z M21,42 L11.1563048,32.1563049 L21,22.3126095 L30.8436953,32.1563049 L21,42 L21,42 L21,42 L21,42 Z M12.4689143,32.1563049 L21,40.6873904 L29.5313777,32.1563049 L21,23.6252191 L12.4689143,32.1563049 L12.4689143,32.1563049 L12.4689143,32.1563049 L12.4689143,32.1563049 L12.4689143,32.1563049 L12.4689143,32.1563049 Z" id="Shape" fill="#FFFFFF"></path>
                </g>
            </g>
        </g>
    </g>
</svg>