<?xml version="1.0" encoding="UTF-8"?>
<svg width="60px" height="60px" viewBox="0 0 60 60" version="1.1" xmlns="http://www.w3.org/2000/svg" xmlns:xlink="http://www.w3.org/1999/xlink">
    <title>coreos</title>
    <defs>
        <path id="path-1" d="M0,54 a 6 6 0 0 0 6 6 h54 v-60 h-54 a 6 6 0 0 0 -6 6z"/>
    </defs>
    <g id="Iland-Cloud" stroke="none" stroke-width="1" fill="none" fill-rule="evenodd">
        <g id="VM-Logo-Library" transform="translate(-43.000000, -687.000000)">
            <g id="coreos_rounded" transform="translate(43.000000, 687.000000)">
                <mask id="mask-2" fill="white">
                    <use xlink:href="#path-1"></use>
                </mask>
                <g id="Rectangle-13">
                    <use fill="#FFFFFF" fill-rule="evenodd" xlink:href="#path-1"></use>
                </g>
                <g id="Group" mask="url(#mask-2)" fill-rule="nonzero">
                    <g transform="translate(12.000000, 12.000000)" id="Shape">
                        <path d="M17.9397547,0.087986087 C8.10977483,0.087986087 0.114271235,8.13729391 0.114271235,18.0313044 C0.114271235,27.9259826 8.10977483,35.9747897 17.9397547,35.9747897 C27.7667492,35.9747897 35.7629162,27.9259826 35.7629162,18.0313044 C35.7629162,8.13729391 27.7667492,0.087986087 17.9397547,0.087986087 L17.9397547,0.087986087 Z" fill="#53A3DA"></path>
                        <path d="M17.9397547,1.7345113 C15.0733544,1.7345113 12.6423127,6.35002435 11.7642983,12.7651617 C11.7362695,12.97152 11.70907,13.1803826 11.6850216,13.3905809 C11.5651114,14.400167 11.4838445,15.4499896 11.443211,16.5306991 C11.4238065,17.0252244 11.4141872,17.5250922 11.4141872,18.0313044 C11.4141872,18.5370156 11.4238065,19.0378852 11.443211,19.5314087 C11.4838445,20.6119513 11.5651114,21.6624417 11.6850216,22.6720278 C13.0290769,22.8471652 14.4661745,22.9660383 15.9651345,23.0224696 C16.6131137,23.0468452 17.2707124,23.0613704 17.9399205,23.0613704 C18.6071385,23.0613704 19.2667273,23.0466783 19.9127164,23.0224696 C21.4135007,22.9660383 22.8496032,22.8471652 24.1948194,22.6720278 C24.3427585,22.6529948 24.4883754,22.6321252 24.6358168,22.6105878 C30.2339465,21.8192139 34.1282901,20.0675061 34.1282901,18.0313044 C34.1281245,9.03034435 26.8796129,1.7345113 17.9397547,1.7345113 L17.9397547,1.7345113 Z" fill="#F1606D"></path>
                        <path d="M24.6356511,13.45152 C24.473283,13.2131061 24.2991396,12.9847096 24.1135527,12.7653287 C22.6281924,11.0027687 20.4155762,9.88282435 17.9399205,9.88282435 C17.1373683,9.88282435 16.422717,11.1194713 15.9651345,13.0398052 C15.7833619,13.8054678 15.6422229,14.6791513 15.5513366,15.6272974 C15.479689,16.3871165 15.4410458,17.1951861 15.4410458,18.0313044 C15.4410458,18.8674226 15.479689,19.6756591 15.5513366,20.4348104 C16.3066214,20.5069356 17.1081785,20.5456696 17.9399205,20.5456696 C18.7706674,20.5456696 19.5722246,20.5069356 20.3275094,20.4348104 C21.9878422,20.2762017 23.4211253,19.9548104 24.4364641,19.5314087 C25.4391983,19.1138504 26.0326128,18.5939478 26.0326128,18.0313044 C26.0324468,16.3336904 25.5174799,14.756953 24.6356511,13.45152 L24.6356511,13.45152 Z" fill="#FFFFFF"></path>
                    </g>
                </g>
            </g>
        </g>
    </g>
</svg>
