<?xml version="1.0" encoding="UTF-8"?>
<svg width="60px" height="60px" viewBox="0 0 60 60" version="1.1" xmlns="http://www.w3.org/2000/svg" xmlns:xlink="http://www.w3.org/1999/xlink">
    <!-- Generator: sketchtool 53.1 (72631) - https://sketchapp.com -->
    <title>192584A7-FD9B-41E2-9BD5-614295E2025C</title>
    <desc>Created with sketchtool.</desc>
    <g id="Secure-Cloud-V9" stroke="none" stroke-width="1" fill="none" fill-rule="evenodd">
        <g id="VM-Logo-Library" transform="translate(-49.000000, -687.000000)">
            <g id="coreos_square" transform="translate(49.000000, 687.000000)">
                <path d="M0,6.0000383 C0,2.68630865 2.69463714,0 6.0000383,0 L60,0 L60,60 L6.0000383,60 C2.68630865,60 0,57.3053629 0,53.9999617 L0,6.0000383 Z" id="Rectangle-14" fill="#014363"></path>
                <g id="Group" transform="translate(10.000000, 10.000000)" fill-rule="nonzero">
                    <path d="M19.9330607,0.0977623189 C9.01086093,0.0977623189 0.126968039,9.04143768 0.126968039,20.0347826 C0.126968039,31.0288696 9.01086093,39.9719885 19.9330607,39.9719885 C30.8519436,39.9719885 39.7365735,31.0288696 39.7365735,20.0347826 C39.7365735,9.04143768 30.8519436,0.0977623189 19.9330607,0.0977623189 L19.9330607,0.0977623189 Z" id="Shape" fill="#53A3DA"></path>
                    <path d="M19.9330607,1.92723478 C16.7481716,1.92723478 14.0470141,7.05558261 13.0714426,14.183513 C13.0402994,14.4128 13.0100777,14.6448696 12.9833573,14.8784232 C12.8501238,16.0001855 12.7598272,17.1666551 12.7146789,18.3674435 C12.6931183,18.9169159 12.6824302,19.4723246 12.6824302,20.0347826 C12.6824302,20.5966841 12.6931183,21.1532058 12.7146789,21.7015652 C12.7598272,22.9021681 12.8501238,24.0693797 12.9833573,25.191142 C14.4767521,25.3857391 16.0735272,25.5178203 17.7390383,25.5805217 C18.4590153,25.6076058 19.1896804,25.6237449 19.933245,25.6237449 C20.6745983,25.6237449 21.4074748,25.6074203 22.1252404,25.5805217 C23.7927786,25.5178203 25.388448,25.3857391 26.8831327,25.191142 C27.0475094,25.1699942 27.209306,25.1468058 27.3731298,25.1228754 C33.5932739,24.243571 37.9203224,22.297229 37.9203224,20.0347826 C37.9201383,10.0337159 29.8662366,1.92723478 19.9330607,1.92723478 L19.9330607,1.92723478 Z" id="Shape" fill="#F1606D"></path>
                    <path d="M27.3729457,14.9461333 C27.1925367,14.681229 26.999044,14.4274551 26.7928363,14.1836986 C25.1424359,12.2252986 22.6839735,10.9809159 19.933245,10.9809159 C19.0415203,10.9809159 18.2474633,12.3549681 17.7390383,14.4886725 C17.5370688,15.3394087 17.3802476,16.3101681 17.2792629,17.3636638 C17.1996545,18.2079073 17.1567175,19.1057623 17.1567175,20.0347826 C17.1567175,20.9638029 17.1996545,21.8618435 17.2792629,22.7053449 C18.1184682,22.7854841 19.0090872,22.8285217 19.933245,22.8285217 C20.8562971,22.8285217 21.7469162,22.7854841 22.5861215,22.7053449 C24.4309358,22.529113 26.0234725,22.1720116 27.1516268,21.7015652 C28.2657759,21.2376116 28.9251253,20.659942 28.9251253,20.0347826 C28.9249409,18.1485449 28.3527555,16.3966145 27.3729457,14.9461333 L27.3729457,14.9461333 Z" id="Shape" fill="#FFFFFF"></path>
                </g>
            </g>
        </g>
    </g>
</svg>