<?xml version="1.0" encoding="UTF-8"?>
<svg width="60px" height="60px" viewBox="0 0 60 60" version="1.1" xmlns="http://www.w3.org/2000/svg" xmlns:xlink="http://www.w3.org/1999/xlink">
    <!-- Generator: Sketch 46.1 (44463) - http://www.bohemiancoding.com/sketch -->
    <title>debian_rounded</title>
    <desc>Created with Sketch.</desc>
    <defs>
        <ellipse id="path-1" cx="30" cy="30" rx="30" ry="30"/>
    </defs>
    <g id="Iland-Cloud" stroke="none" stroke-width="1" fill="none" fill-rule="evenodd">
        <g id="VM-Logo-Library" transform="translate(-43.000000, -607.000000)">
            <g id="debian_rounded" transform="translate(43.000000, 607.000000)">
                <mask id="mask-2" fill="white">
                    <use xlink:href="#path-1"></use>
                </mask>
                <use id="Rectangle-13" fill="#D71C54" xlink:href="#path-1"></use>
                <g id="openlogo-nd" mask="url(#mask-2)" fill-rule="nonzero" fill="#FFFFFF">
                    <g transform="translate(16.000000, 12.000000)" id="Shape">
                        <path d="M17.3501509,18.9237798 C16.7617271,18.9320367 17.4614831,19.2296147 18.2296758,19.348844 C18.441862,19.1817248 18.6344013,19.0126239 18.8059839,18.8481468 C18.3275827,18.9663853 17.8406677,18.9690275 17.3501509,18.9237798"></path>
                        <path d="M20.5083852,18.1297982 C20.8587544,17.6419817 21.1141637,17.1079266 21.2042119,16.5557064 C21.1256244,16.9493945 20.9137657,17.2892477 20.7143499,17.6479266 C19.6144526,18.3464587 20.6108764,17.2331009 20.713695,16.8100183 C19.5309535,18.3114495 20.5512809,17.7103486 20.5083852,18.1297982"></path>
                        <path d="M21.7675377,15.0701284 C21.8605377,14.0013578 21.4945377,14.3392294 21.3715377,14.7471193 C21.5151091,14.8045872 21.6286806,15.5004771 21.7675377,15.0701284"></path>
                        <path d="M15.1189213,0.462055046 C15.4329438,0.535769332 15.7973933,0.59234076 15.7463114,0.690483617 C16.0898042,0.591912189 16.1677368,0.501055046 15.1189213,0.462055046"></path>
                        <polyline points="15.8148732 0.638091743 15.5243018 0.698091743 15.7947303 0.674091743 15.8148732 0.638091743"></polyline>
                        <path d="M25.5383114,15.4753761 C25.5733483,16.435156 25.2599807,16.900844 24.9773933,17.725211 L24.4688668,17.9815046 C24.0526806,18.7966239 24.5091429,18.4990459 24.2111653,19.1473761 C23.5615088,19.7299817 22.2396019,20.9704954 21.8165393,21.0837798 C21.507756,21.076844 22.0257785,20.7161835 22.0935602,20.5748257 C21.2238587,21.1772477 21.3957689,21.4791193 20.0656758,21.8450642 L20.0267095,21.7578716 C16.7463371,23.3144587 12.189573,20.2296881 12.249496,16.0206606 C12.2144591,16.2878532 12.1499518,16.2211376 12.0772584,16.3291376 C11.9079679,14.1635229 13.0687705,11.9883303 15.0265811,11.1002202 C16.941496,10.1440734 19.1864783,10.5364404 20.5581573,11.8258349 C19.8046998,10.8303853 18.3049888,9.77515596 16.5276019,9.87390826 C14.7865618,9.90165138 13.1578363,11.0176514 12.6142729,12.2291009 C11.722305,12.7955229 11.6188315,14.4125505 11.2301509,14.7084771 C10.7072167,18.5849174 12.2138042,20.2597431 14.7623307,22.2298349 C15.1634543,22.5026422 14.8753002,22.5439266 14.9296565,22.7516697 C14.0828764,22.3517064 13.3074799,21.7479633 12.669939,21.0088073 C13.0081926,21.5081835 13.373297,21.9936881 13.8451493,22.375156 C13.0468315,22.1023486 11.9803339,20.4238899 11.668931,20.3555229 C13.0451942,22.840844 17.2525714,24.7141651 19.4556404,23.7847706 C18.4362953,23.8227523 17.1412392,23.8059083 15.9958266,23.3788624 C15.5148058,23.1291743 14.860565,22.6119633 14.9774639,22.5151927 C17.9840899,23.6480367 21.0899326,23.3732477 23.6915056,21.2697248 C24.3532777,20.7498716 25.0762825,19.8653945 25.2851942,19.8531743 C24.9705169,20.330422 25.3388957,20.0827156 25.0972392,20.5041468 C25.7567191,19.4314128 24.8107223,20.0675229 25.7789856,18.651633 L26.1365586,19.148367 C26.0036148,18.257945 27.2328539,17.1766239 27.1080963,15.7683303 C27.3900289,15.3376514 27.4227737,16.2317064 27.1234864,17.2225321 C27.5386902,16.1233761 27.2328539,15.9466789 27.3396019,15.0397431 C27.4548636,15.3445872 27.6061445,15.6685872 27.6837496,15.9902752 C27.4132777,14.9281101 27.9614254,14.2015046 28.0969888,13.5842202 C27.96339,13.5244404 27.6794928,14.0538716 27.6146581,12.799156 C27.6241541,12.2542018 27.7649567,12.5134679 27.819313,12.3793761 C27.7132199,12.317945 27.4348892,11.9001468 27.2655987,11.0988991 C27.3883917,10.9106422 27.5937014,11.5870459 27.7606998,11.614789 C27.653297,10.9776881 27.4682889,10.4918532 27.4607576,10.0030459 C26.9728604,8.97456881 27.2881926,10.1401101 26.8923082,9.56146789 C26.3729759,7.92759633 27.3232295,9.18231193 27.3874093,8.43985321 C28.1745939,9.59020183 28.6235249,11.3730275 28.8294896,12.1115229 C28.6723146,11.2111927 28.4182151,10.3389358 28.108122,9.49508257 C28.3471589,9.59647706 27.7230433,7.64256881 28.41887,8.93658716 C27.6755634,6.17812844 25.2377143,3.60066055 22.9950241,2.39119266 C23.2694254,2.64451376 23.6158652,2.96256881 23.491435,3.01244037 C22.3761477,2.3426422 22.5722889,2.29045872 22.4124944,2.00741284 C21.5038266,1.63453211 21.4442311,2.03746789 20.842382,2.00807339 C19.1298299,1.09188991 18.7997624,1.1893211 17.223756,0.615302752 L17.2954671,0.953174312 C16.1608604,0.572036697 15.9735602,1.09783486 14.7472681,0.954495413 C14.67261,0.895706422 15.1402055,0.741798165 15.5249567,0.685321101 C14.4280064,0.831302752 14.4794157,0.46733945 13.4060417,0.725614679 C13.6706196,0.538348624 13.95026,0.414495413 14.2325201,0.255302752 C13.3379326,0.31012844 12.0969053,0.780440367 12.4800193,0.352733945 C11.0209117,1.0093211 8.42948957,1.93111927 6.97529374,3.30638532 L6.92945104,2.99823853 C6.2630947,3.80510092 4.02367897,5.40792661 3.8452199,6.45291743 L3.66708828,6.49486239 C3.32032103,7.08704587 3.09601926,7.75816514 2.82096308,8.36752294 C2.36744783,9.14697248 2.15624398,8.66741284 2.2207512,8.78961468 C1.32878331,10.6137248 0.885746388,12.1465321 0.502959872,13.4035596 C0.775723917,13.8147523 0.509508828,15.8789725 0.612654896,17.5310092 C0.16470626,25.6901284 6.28994543,33.6121101 12.9852713,35.4411743 C13.9666324,35.7952294 15.4260674,35.7816881 16.6674222,35.8180183 C15.202748,35.3955963 15.0134831,35.5940917 13.5867929,35.0924037 C12.5576244,34.6035963 12.3320128,34.0454312 11.603114,33.4073394 L11.8915955,33.921578 C10.4619583,33.4113028 11.0602055,33.2900917 9.89711075,32.9185321 L10.2052392,32.5126239 C9.74190048,32.4772844 8.97796469,31.7249174 8.76905297,31.3084404 L8.26216372,31.3285872 C7.65311075,30.5706055 7.32860995,30.0243303 7.3521862,29.6012477 L7.18846228,29.8955229 C7.00279936,29.5741651 4.94773676,27.052844 6.0139069,27.6397431 C5.81580096,27.4571009 5.55253291,27.3424954 5.26699839,26.8193394 L5.48409631,26.5689908 C4.97098555,25.903156 4.53973676,25.0497248 4.57248154,24.7653578 C4.84622793,25.1382385 5.03614767,25.2079266 5.22410273,25.2716697 C3.92839165,22.0290275 3.85569823,25.0929908 2.87433708,21.9708991 L3.081939,21.954055 C2.92279936,21.7122936 2.82620225,21.4497248 2.69817014,21.1921101 L2.78854575,20.2838532 C1.85564687,19.1959266 2.52756982,15.6580183 2.66215088,13.7176514 C2.75547352,12.9286239 3.44082183,12.0887339 3.96211878,10.7715963 L3.64449438,10.7164404 C4.25158266,9.64833028 7.11085714,6.42682569 8.43505618,6.59262385 C9.07652648,5.77981651 8.30767897,6.58965138 8.18226645,6.38488073 C9.59127448,4.91416514 10.0343114,5.34583486 10.9852199,5.0812844 C12.0107865,4.46730275 10.1050401,5.32073394 10.5913002,4.84711927 C12.3641027,4.39034862 11.8477175,3.80873394 14.1604815,3.57688073 C14.4044302,3.71691743 13.5943242,3.79321101 13.3909791,3.97486239 C14.8680963,3.24594495 18.065297,3.41174312 20.1419711,4.37944954 C22.5516597,5.51526606 25.2589984,8.87284404 25.3657464,12.0319266 L25.4872295,12.0649541 C25.4256693,13.3206606 25.6778042,14.7728807 25.2409888,16.1068624 L25.5383114,15.4753761"></path>
                        <path d="M10.9275891,19.7385688 L10.8450722,20.1547156 C11.2317881,20.6844771 11.5386067,21.2584954 12.0323981,21.6726606 C11.6771172,20.9731376 11.4131942,20.6841468 10.9275891,19.7385688"></path>
                        <path d="M11.8418234,19.7022385 C11.6371685,19.4740183 11.5160128,19.1992294 11.3804494,18.9254312 C11.5101188,19.4066422 11.775679,19.8201468 12.0229021,20.2405872 L11.8418234,19.7022385"></path>
                        <path d="M28.0190562,16.1557431 L27.93261,16.3743853 C27.7741252,17.5098716 27.4319422,18.6334679 26.9073708,19.675156 C27.4869535,18.576 27.8618812,17.3737982 28.0190562,16.1557431"></path>
                        <path d="M15.2351653,0.230142857 C15.6330144,0.0394285714 16.213252,0.125571429 16.6353323,0 C16.0852199,0.0604285714 15.5377271,0.0964285714 14.9971108,0.187714286 L15.2351653,0.230142857"></path>
                        <path d="M1.26787801,7.66866055 C1.3595634,8.52473394 0.629354735,8.85699083 1.42963724,8.29255046 C1.8585939,7.31790826 1.26198395,8.02337615 1.26787801,7.66866055"></path>
                        <path d="M0.335750996,11.6306422 C0.57703671,11.0599266 0.620750996,10.7171009 0.712893853,10.3868257 C0.0460367101,11.0437431 0.40603671,11.1837798 0.335750996,11.6306422"></path>
                    </g>
                </g>
            </g>
        </g>
    </g>
</svg>