<?xml version="1.0" encoding="UTF-8"?>
<svg width="60px" height="60px" viewBox="0 0 60 60" version="1.1" xmlns="http://www.w3.org/2000/svg" xmlns:xlink="http://www.w3.org/1999/xlink">
    <!-- Generator: sketchtool 53.1 (72631) - https://sketchapp.com -->
    <title>7E39A93B-B8A5-4A0F-9DBA-907E67B57F0F</title>
    <desc>Created with sketchtool.</desc>
    <g id="Secure-Cloud-V9" stroke="none" stroke-width="1" fill="none" fill-rule="evenodd">
        <g id="VM-Logo-Library" transform="translate(-49.000000, -607.000000)">
            <g id="debian_square" transform="translate(49.000000, 607.000000)">
                <path d="M0,6.0000383 C0,2.68630865 2.69463714,0 6.0000383,0 L60,0 L60,60 L6.0000383,60 C2.68630865,60 0,57.3053629 0,53.9999617 L0,6.0000383 Z" id="Rectangle-14" fill="#D71C54"></path>
                <g id="openlogo-nd" transform="translate(12.000000, 8.000000)" fill="#FFFFFF" fill-rule="nonzero">
                    <path d="M21.4325393,23.1290642 C20.7056629,23.139156 21.5700674,23.5028624 22.5190112,23.6485872 C22.7811236,23.4443303 23.0189663,23.2376514 23.2309213,23.0366239 C22.6399551,23.1811376 22.0384719,23.184367 21.4325393,23.1290642" id="Shape"></path>
                    <path d="M25.3338876,22.1586422 C25.7666966,21.562422 26.0822022,20.9096881 26.1934382,20.2347523 C26.0963596,20.7159266 25.8346517,21.1313028 25.5883146,21.5696881 C24.229618,22.4234495 25.4604944,21.0626789 25.5875056,20.545578 C24.1264719,22.3806606 25.3868764,21.6459817 25.3338876,22.1586422" id="Shape"></path>
                    <path d="M26.8893113,18.4190459 C27.0041937,17.1127706 26.552076,17.5257248 26.4001348,18.0242569 C26.5774878,18.0944954 26.7177819,18.9450275 26.8893113,18.4190459" id="Shape"></path>
                    <path d="M18.6763146,0.564733945 C19.0642247,0.654829183 19.514427,0.72397204 19.4513258,0.843924421 C19.8756404,0.723448231 19.9719101,0.612400612 18.6763146,0.564733945" id="Shape"></path>
                    <polyline id="Shape" points="19.5360198 0.779889908 19.1770787 0.853223242 19.5111375 0.823889908 19.5360198 0.779889908"></polyline>
                    <path d="M31.5473258,18.9143486 C31.5906067,20.0874128 31.2035056,20.6565872 30.854427,21.6641468 L30.2262472,21.9773945 C29.7121348,22.9736514 30.276,22.609945 29.9079101,23.4023486 C29.1053933,24.114422 27.4724494,25.6306055 26.9498427,25.7690642 C26.5684045,25.7605872 27.2083146,25.3197798 27.2920449,25.1470092 C26.2177079,25.8833028 26.4300674,26.2522569 24.7870112,26.6995229 L24.7388764,26.5929541 C20.6866517,28.4954495 15.0577079,24.7251743 15.1317303,19.5808073 C15.0884494,19.9073761 15.008764,19.8258349 14.9189663,19.9578349 C14.7098427,17.3109725 16.1437753,14.6524037 18.5622472,13.5669358 C20.9277303,12.3983119 23.7009438,12.8778716 25.3953708,14.4537982 C24.4646292,13.2371376 22.6120449,11.9474128 20.4164494,12.0681101 C18.2657528,12.1020183 16.2537978,13.4660183 15.5823371,14.9466789 C14.4804944,15.6389725 14.3526742,17.6153394 13.8725393,17.9770275 C13.2265618,22.7148991 15.0876404,24.7619083 18.2358202,27.1697982 C18.7313258,27.5032294 18.3753708,27.5536881 18.4425169,27.8075963 C17.3964944,27.3187523 16.4386517,26.580844 15.6511011,25.6774312 C16.0689438,26.2877798 16.5199551,26.8811743 17.1028315,27.3474128 C16.1166742,27.0139817 14.799236,24.9625321 14.4145618,24.8789725 C16.1146517,27.9165872 21.312,30.2062018 24.0334382,29.0702752 C22.7742472,29.1166972 21.1744719,29.0961101 19.7595506,28.5741651 C19.1653483,28.2689908 18.3571685,27.636844 18.501573,27.5185688 C22.2156404,28.903156 26.0522697,28.5673028 29.2659775,25.9963303 C30.0834607,25.3609541 30.9765843,24.2799266 31.2346517,24.2649908 C30.8459326,24.8482936 31.3009888,24.5455413 31.0024719,25.0606239 C31.8171236,23.7495046 30.6485393,24.5269725 31.8446292,22.7964404 L32.2863371,23.4035596 C32.1221124,22.3152661 33.6405843,20.9936514 33.4864719,19.2724037 C33.8347416,18.7460183 33.875191,19.8387523 33.5054831,21.0497615 C34.018382,19.7063486 33.6405843,19.4903853 33.7724494,18.3819083 C33.9148315,18.7544954 34.1017079,19.1504954 34.197573,19.5436697 C33.8634607,18.2454679 34.5405843,17.3573945 34.7080449,16.6029358 C34.5430112,16.5298716 34.1923146,17.1769541 34.1122247,15.6434128 C34.1239551,14.9773578 34.2978876,15.2942385 34.3650337,15.1303486 C34.2339775,15.0552661 33.8901573,14.5446239 33.6810337,13.5653211 C33.8327191,13.3352294 34.0863371,14.161945 34.2926292,14.1958532 C34.1599551,13.4171743 33.9314157,12.8233761 33.9221124,12.225945 C33.3194157,10.9689174 33.7089438,12.3934679 33.2199101,11.6862385 C32.578382,9.6892844 33.7522247,11.2228257 33.8315056,10.3153761 C34.8039101,11.7213578 35.3584719,13.900367 35.6128989,14.8029725 C35.4187416,13.7025688 35.1048539,12.6364771 34.7217978,11.6051009 C35.0170787,11.7290275 34.2461124,9.34091743 35.1056629,10.9224954 C34.1874607,7.55104587 31.176,4.40080734 28.405618,2.92256881 C28.7445843,3.23218349 29.1725393,3.62091743 29.0188315,3.68187156 C27.6411236,2.86322936 27.8834157,2.79944954 27.6860225,2.45350459 C26.5635506,1.99776147 26.4899326,2.49023853 25.7464719,2.45431193 C23.6309663,1.33453211 23.223236,1.45361468 21.2764045,0.752036697 L21.3649888,1.16499083 C19.9634157,0.699155963 19.7320449,1.34179817 18.2172135,1.1666055 C18.1249888,1.09475229 18.7026067,0.906642202 19.1778876,0.837614679 C17.8228315,1.0160367 17.8863371,0.571192661 16.5604045,0.886862385 C16.887236,0.657981651 17.2326742,0.506605505 17.5813483,0.312036697 C16.4762697,0.379045872 14.943236,0.95387156 15.4164944,0.431119266 C13.6140674,1.23361468 10.4128989,2.36025688 8.61653933,4.04113761 L8.55991011,3.66451376 C7.73676404,4.6506789 4.97042697,6.60968807 4.74997753,7.88689908 L4.52993258,7.93816514 C4.10157303,8.66194495 3.82449438,9.48220183 3.4847191,10.2269725 C2.92449438,11.179633 2.66359551,10.5935046 2.7432809,10.7428624 C1.6414382,12.9723303 1.0941573,14.8457615 0.621303371,16.3821284 C0.958247191,16.8846972 0.629393258,19.407633 0.756808989,21.426789 C0.203460674,31.3990459 7.76993258,41.0814679 16.0406292,43.3169908 C17.2528989,43.7497248 19.0557303,43.7331743 20.5891685,43.777578 C18.7798652,43.2612844 18.5460674,43.5038899 16.7836854,42.8907156 C15.5123596,42.2932844 15.2336629,41.6110826 14.3332584,40.8311927 L14.689618,41.4597064 C12.9235955,40.8360367 13.6626067,40.6878899 12.2258427,40.2337615 L12.6064719,39.7376514 C12.0341124,39.6944587 11.090427,38.7748991 10.8323596,38.2658716 L10.2062022,38.2904954 C9.4538427,37.3640734 9.05298876,36.6964037 9.08211236,36.1793028 L8.87986517,36.5389725 C8.65051685,36.1462018 6.11191011,33.0645872 7.42894382,33.7819083 C7.18422472,33.5586789 6.85901124,33.4186055 6.50629213,32.7791927 L6.77447191,32.473211 C6.14062921,31.6594128 5.60791011,30.6163303 5.64835955,30.2687706 C5.98651685,30.7245138 6.2211236,30.8096881 6.45330337,30.8875963 C4.8527191,26.924367 4.76292135,30.669211 3.55065169,26.8533211 L3.80710112,26.8327339 C3.61051685,26.5372477 3.49119101,26.2163303 3.33303371,25.9014679 L3.44467416,24.7913761 C2.29226966,23.4616881 3.12229213,19.137578 3.28853933,16.7660183 C3.40382022,15.8016514 4.25042697,14.7751193 4.89438202,13.1652844 L4.50202247,13.0978716 C5.25195506,11.7924037 8.784,7.85500917 10.4197753,8.05765138 C11.2121798,7.06422018 10.262427,8.05401835 10.1075056,7.80374312 C11.8480449,6.00620183 12.3953258,6.53379817 13.5699775,6.21045872 C14.8368539,5.4600367 12.4826966,6.50311927 13.0833708,5.92425688 C15.2733034,5.36598165 14.6354157,4.65511927 17.4923596,4.37174312 C17.7937079,4.54289908 16.7929888,4.63614679 16.5417978,4.85816514 C18.3664719,3.96726606 22.3159551,4.16990826 24.8812584,5.35266055 C27.8579326,6.74088073 31.2022921,10.8445872 31.3341573,14.7056881 L31.4842247,14.746055 C31.4081798,16.2808073 31.7196404,18.0557431 31.1800449,19.6861651 L31.5473258,18.9143486" id="Shape"></path>
                    <path d="M13.4987865,24.1249174 L13.3968539,24.6335413 C13.8745618,25.2810275 14.253573,25.9826055 14.8635506,26.4888073 C14.4246742,25.6338349 14.0986517,25.2806239 13.4987865,24.1249174" id="Shape"></path>
                    <path d="M14.6281348,24.0805138 C14.3753258,23.801578 14.2256629,23.4657248 14.0582022,23.1310826 C14.218382,23.7192294 14.546427,24.2246239 14.8518202,24.7384954 L14.6281348,24.0805138" id="Shape"></path>
                    <path d="M34.6117753,19.7459083 L34.5049888,20.0131376 C34.3092135,21.4009541 33.8865169,22.7742385 33.2385169,24.0474128 C33.9544719,22.704 34.417618,21.2346422 34.6117753,19.7459083" id="Shape"></path>
                    <path d="M18.8199101,0.281285714 C19.3113708,0.0481904762 20.0281348,0.15347619 20.5495281,0 C19.8699775,0.0738571429 19.1936629,0.117857143 18.5258427,0.229428571 L18.8199101,0.281285714" id="Shape"></path>
                    <path d="M1.56620225,9.37280734 C1.67946067,10.4191193 0.777438202,10.825211 1.76602247,10.1353394 C2.29591011,8.94411009 1.55892135,9.80634862 1.56620225,9.37280734" id="Shape"></path>
                    <path d="M0.41475123,14.2152294 C0.712810054,13.5176881 0.766810054,13.0986789 0.880633583,12.6950092 C0.0568688771,13.4979083 0.50157476,13.6690642 0.41475123,14.2152294" id="Shape"></path>
                </g>
            </g>
        </g>
    </g>
</svg>