<?xml version="1.0" encoding="UTF-8"?>
<svg width="40px" height="40px" viewBox="0 0 40 40" version="1.1" xmlns="http://www.w3.org/2000/svg" xmlns:xlink="http://www.w3.org/1999/xlink">
    <!-- Generator: Sketch 46.1 (44463) - http://www.bohemiancoding.com/sketch -->
    <title>edge</title>
    <desc>Created with Sketch.</desc>
    <defs>
        <path d="M19.6197827,11.1194409 C17.3492369,12.7769832 14.9334234,13.9627501 12.4145814,14.8327077 C12.1636756,14.919967 11.9976827,15.1477475 12.0000245,15.4015752 C12.0000245,19.95716 12.9980312,22.824192 14.4938937,24.8097621 C15.9897351,26.7953121 17.9334446,27.8546909 19.6592633,28.9043476 C19.8676225,29.0318841 20.1352347,29.0318841 20.3435939,28.9043476 C22.0694126,27.8546909 24.0131221,26.7953121 25.5089635,24.8097621 C27.004826,22.824192 28.0028327,19.95716 28.0028327,15.4015752 C28.0051745,15.1477475 27.8391816,14.919967 27.5882758,14.8327077 C25.0694338,13.9627501 22.6536203,12.7769832 20.3830745,11.1194409 C20.2657006,11.0360978 20.121481,10.99411 19.9751082,11.0006664 C19.8467089,11.0050107 19.722756,11.0464444 19.6197827,11.1194409 Z" id="path-1"></path>
    </defs>
    <g id="Interactive-Networking" stroke="none" stroke-width="1" fill="none" fill-rule="evenodd">
        <g id="Interactive_Network_01" transform="translate(-163.000000, -293.000000)">
            <g id="edge" transform="translate(163.000000, 293.000000)">
                <circle id="Oval-4-Copy-4" fill="#353F4E" cx="20" cy="20" r="20"></circle>
                <g id="Shape" fill-rule="nonzero">
                    <use fill="#87A1B5" fill-rule="evenodd" xlink:href="#path-1"></use>
                    <path stroke="#87A1B5" stroke-width="2" d="M20.0013988,12.07743 C17.8754588,13.5980604 15.5579325,14.7798692 13.0013639,15.6868013 C13.03804,19.5646771 13.8272982,22.2630365 15.2926022,24.208044 C16.0986496,25.2779752 17.0710813,26.1060363 18.4584861,26.9970796 C18.7126976,27.1603438 18.9771533,27.3240392 19.3153877,27.5288424 C19.3876493,27.5725973 19.7550461,27.7937613 20.001423,27.9425518 C20.2467111,27.7944235 20.6150998,27.5726627 20.6874695,27.5288424 C21.0257039,27.3240392 21.2901596,27.1603438 21.5443712,26.9970796 C22.931776,26.1060363 23.9042076,25.2779752 24.7102561,24.2080425 C26.1744839,22.2644636 26.9636586,19.5686366 27.0014509,15.6867713 C24.4399201,14.7779207 22.1200639,13.5942787 20.0013988,12.07743 Z"></path>
                </g>
            </g>
        </g>
    </g>
</svg>