<?xml version="1.0" encoding="UTF-8"?>
<svg width="60px" height="60px" viewBox="0 0 60 60" version="1.1" xmlns="http://www.w3.org/2000/svg" xmlns:xlink="http://www.w3.org/1999/xlink">
    <!-- Generator: sketchtool 53.1 (72631) - https://sketchapp.com -->
    <title>2C15FD0F-405E-420E-B9E6-4E49EA230794</title>
    <desc>Created with sketchtool.</desc>
    <g id="Secure-Cloud-V9" stroke="none" stroke-width="1" fill="none" fill-rule="evenodd">
        <g id="VM-Logo-Library" transform="translate(-49.000000, -527.000000)">
            <g id="fedora_square" transform="translate(49.000000, 527.000000)">
                <path d="M0,6.0000383 C0,2.68630865 2.69463714,0 6.0000383,0 L60,0 L60,60 L6.0000383,60 C2.68630865,60 0,57.3053629 0,53.9999617 L0,6.0000383 Z" id="Rectangle-14" fill="#3C6EB4"></path>
                <g id="Fedora_logo" transform="translate(11.000000, 11.000000)" fill-rule="nonzero">
                    <path d="M37.946736,19.0008724 C37.946736,8.53666157 29.4638366,0.0534889139 18.999704,0.0534889139 C8.54027655,0.0534889139 0.0606847191,8.52953835 0.0532640449,18.9875112 L0.0532640449,33.6496831 C0.0588928839,36.024232 1.98474569,37.9465111 4.36078749,37.9465111 L19.0073894,37.9465111 C29.4680279,37.9424051 37.946736,29.4622995 37.946736,19.0008724" id="voice" fill="#294172"></path>
                    <path d="M10.9767752,22.302237 C8.36599229,22.302237 6.246023,24.4222076 6.246023,27.0329922 C6.246023,29.6437731 8.36599138,31.7637403 10.9767752,31.7637403 C13.5875579,31.7637403 15.7075263,29.6437729 15.7075263,27.0329922 L15.7075263,22.302237 L10.9767752,22.302237 Z M10.9767752,18.1450085 L19.8647548,18.1450085 L19.8647548,27.0329922 C19.8647548,31.9397472 15.8835314,35.9209688 10.9767752,35.9209688 C6.07001801,35.9209688 2.08879453,31.9397475 2.08879453,27.0329922 C2.08879453,22.1262343 6.07001785,18.1450085 10.9767752,18.1450085 Z" id="in" fill="#3C6EB4"></path>
                    <g id="finity" transform="translate(24.580664, 13.419294) rotate(-180.000000) translate(-24.580664, -13.419294) translate(17.749204, 6.587834)" fill="#3C6EB4">
                        <path d="M11.5801855,2.09249918 L6.84943439,2.09249918 C4.23865147,2.09249918 2.11868217,4.21246976 2.11868217,6.82325438 C2.11868217,9.43403525 4.23865056,11.5540025 6.84943439,11.5540025 C9.46021712,11.5540025 11.5801855,9.43403507 11.5801855,6.82325438 L11.5801855,2.09249918 Z M6.84943439,-2.06472929 L15.7374139,-2.06472929 L15.7374139,6.82325438 C15.7374139,11.7300094 11.7561906,15.7112309 6.84943439,15.7112309 C1.94267719,15.7112309 -2.03854629,11.7300096 -2.03854629,6.82325438 C-2.03854629,1.91649644 1.94267702,-2.06472929 6.84943439,-2.06472929 Z" id="in"></path>
                    </g>
                    <path d="M19.869218,18.1502275 L19.869218,27.0234666 C19.869218,31.9341511 15.8877046,35.9157512 10.9768465,35.9157512 C10.2317989,35.9157512 9.70214007,35.8316375 9.01246712,35.6513595 C8.00682629,35.3881888 7.18498592,34.5636586 7.18464434,33.6046097 C7.18464434,32.4453778 8.02610382,31.6021521 9.28393655,31.6021521 C9.88259596,31.6021521 10.0998222,31.7170985 10.9768465,31.7170985 C13.5659146,31.7170985 15.6660237,29.6199554 15.6705652,27.0308887 L15.6705652,22.9524255 C15.6705652,22.586978 15.3735917,22.2908769 15.0075336,22.2908769 L11.9240954,22.2902677 C10.7752544,22.2902677 9.84704532,21.3739369 9.84704532,20.2219491 C9.84643191,19.0627982 10.7847772,18.1502275 11.946023,18.1502275" id="free" fill="#FFFFFF"></path>
                    <g id="dom" transform="translate(22.018868, 13.419296) rotate(-180.000000) translate(-22.018868, -13.419296) translate(15.614374, 4.453004)" fill="#FFFFFF">
                        <path d="M12.7531131,0.0753211236 L12.7531131,8.94856022 C12.7531131,13.8592447 8.77159978,17.8408449 3.86074165,17.8408449 C3.11569401,17.8408449 2.58603521,17.7567311 1.89636225,17.5764531 C0.890721423,17.3132825 0.0688810487,16.4887522 0.0685394757,15.5297034 C0.0685394757,14.3704714 0.909998951,13.5272457 2.16783169,13.5272457 C2.76649109,13.5272457 2.9837173,13.6421921 3.86074165,13.6421921 C6.44980974,13.6421921 8.54991888,11.545049 8.55446037,8.95598232 L8.55446037,4.87751918 C8.55446037,4.51207161 8.25748682,4.21597049 7.89142869,4.21597049 L4.80799056,4.21536135 C3.65914951,4.21536135 2.73094045,3.29903049 2.73094045,2.1470427 C2.73032704,0.987891835 3.66867228,0.0753211236 4.82991813,0.0753211236" id="free"></path>
                    </g>
                </g>
            </g>
        </g>
    </g>
</svg>