<?xml version="1.0" encoding="UTF-8"?>
<svg width="60px" height="60px" viewBox="0 0 60 60" version="1.1" xmlns="http://www.w3.org/2000/svg" xmlns:xlink="http://www.w3.org/1999/xlink">
    <title>fedora</title>
    <defs>
        <path id="path-1" d="M0,54 a 6 6 0 0 0 6 6 h54 v-60 h-54 a 6 6 0 0 0 -6 6z"/>
    </defs>
    <g id="Iland-Cloud" stroke="none" stroke-width="1" fill="none" fill-rule="evenodd">
        <g id="VM-Logo-Library" transform="translate(-43.000000, -527.000000)">
            <g id="fedora_rounded" transform="translate(43.000000, 527.000000)">
                <use id="Rectangle-13" fill="#3C6EB4" xlink:href="#path-1"></use>
                <g
                    transform="matrix(0.15037594,0,0,0.15037594,10,10)">
                    <path d="M 127.15 0.00 L 138.99 0.00 C 161.65 1.26 183.80 7.85 203.07 19.91 C 231.61 37.47 252.89 66.08 261.49 98.47 C 264.04 107.72 265.25 117.17 266.00 126.72 L 266.00 139.39 C 264.66 161.43 258.38 182.97 246.84 201.85 C 230.59 228.89 204.49 249.64 174.49 259.41 C 162.94 263.27 150.97 265.21 138.84 266.00 L 27.95 266.00 C 20.75 265.31 13.95 262.32 8.84 257.16 C 3.73 252.09 0.74 245.37 0.00 238.23 L 0.00 126.59 C 0.75 117.63 1.80 108.76 4.10 100.06 C 12.36 67.27 33.61 38.17 62.31 20.30 C 81.76 7.98 104.20 1.23 127.15 0.00 Z" fill="#294172" />
                    <path d="M 189.86 34.59 C 192.77 36.67 195.47 38.60 197.18 41.84 C 200.41 47.79 198.31 55.97 192.51 59.53 C 189.31 61.58 185.80 61.88 182.09 61.90 C 175.42 60.95 169.02 60.44 162.48 62.49 C 152.26 65.57 144.08 73.60 140.79 83.75 C 139.48 87.72 139.08 91.84 139.12 96.00 C 139.16 104.68 139.08 113.37 139.15 122.05 C 139.02 124.89 141.01 127.17 143.92 127.07 C 151.88 127.20 159.85 126.96 167.81 127.19 C 174.93 128.69 180.20 134.61 180.00 142.02 C 179.88 149.07 174.98 154.22 168.43 156.16 C 158.67 156.47 148.90 156.21 139.14 156.31 C 139.14 167.54 139.18 178.77 139.13 190.00 C 139.08 203.42 134.48 216.69 126.30 227.31 C 111.23 247.28 83.59 257.06 59.61 249.00 C 56.58 247.09 53.79 245.23 51.92 242.08 C 48.25 236.19 50.12 227.70 55.94 223.92 C 60.02 221.23 64.49 221.20 69.19 221.69 C 77.15 222.84 85.13 222.21 92.27 218.26 C 102.62 212.81 109.34 201.71 109.54 190.04 C 109.66 180.36 109.63 170.66 109.57 160.99 C 109.62 158.30 107.71 156.23 105.00 156.20 C 96.75 155.98 88.47 156.43 80.23 155.96 C 73.35 154.11 68.41 148.26 68.74 140.99 C 68.96 134.27 73.54 129.39 79.68 127.25 C 89.62 126.68 99.62 127.13 109.58 126.98 C 109.57 115.98 109.58 104.99 109.57 94.00 C 109.58 87.14 110.66 80.31 112.87 73.82 C 118.96 55.70 133.65 40.96 151.75 34.83 C 163.92 30.71 177.71 30.04 189.86 34.59 Z" fill="#ffffff" />
                    <path d="M 189.86 34.59 C 194.10 34.93 197.57 36.85 201.28 38.72 C 213.40 45.12 223.26 55.61 228.91 68.10 C 235.24 81.96 236.19 98.10 231.60 112.62 C 227.48 125.84 218.79 137.53 207.36 145.35 C 196.05 153.17 182.15 157.05 168.43 156.16 C 174.98 154.22 179.88 149.07 180.00 142.02 C 180.20 134.61 174.93 128.69 167.81 127.19 C 175.89 127.31 183.65 126.10 190.43 121.43 C 202.21 113.71 207.88 98.60 203.98 85.03 C 202.14 78.43 198.23 72.44 192.89 68.13 C 189.75 65.52 185.72 63.74 182.09 61.90 C 185.80 61.88 189.31 61.58 192.51 59.53 C 198.31 55.97 200.41 47.79 197.18 41.84 C 195.47 38.60 192.77 36.67 189.86 34.59 Z" fill="#3c6eb4" />
                    <path d="M 182.09 61.90 C 185.72 63.74 189.75 65.52 192.89 68.13 C 198.23 72.44 202.14 78.43 203.98 85.03 C 207.88 98.60 202.21 113.71 190.43 121.43 C 183.65 126.10 175.89 127.31 167.81 127.19 C 159.85 126.96 151.88 127.20 143.92 127.07 C 141.01 127.17 139.02 124.89 139.15 122.05 C 139.08 113.37 139.16 104.68 139.12 96.00 C 139.08 91.84 139.48 87.72 140.79 83.75 C 144.08 73.60 152.26 65.57 162.48 62.49 C 169.02 60.44 175.42 60.95 182.09 61.90 Z" fill="#294172" />
                    <path d="M 79.68 127.25 C 73.54 129.39 68.96 134.27 68.74 140.99 C 68.41 148.26 73.35 154.11 80.23 155.96 C 73.02 156.16 66.13 157.01 59.87 160.85 C 47.60 167.93 41.08 182.92 44.36 196.72 C 47.13 209.05 56.91 218.79 69.19 221.69 C 64.49 221.20 60.02 221.23 55.94 223.92 C 50.12 227.70 48.25 236.19 51.92 242.08 C 53.79 245.23 56.58 247.09 59.61 249.00 C 54.71 248.32 50.45 246.18 46.16 243.85 C 34.41 237.26 24.91 226.83 19.51 214.48 C 12.98 199.69 12.53 182.41 18.29 167.30 C 23.74 152.78 34.77 140.57 48.62 133.62 C 58.10 128.89 69.07 126.31 79.68 127.25 Z" fill="#3c6eb4" />
                    <path d="M 80.23 155.96 C 88.47 156.43 96.75 155.98 105.00 156.20 C 107.71 156.23 109.62 158.30 109.57 160.99 C 109.63 170.66 109.66 180.36 109.54 190.04 C 109.34 201.71 102.62 212.81 92.27 218.26 C 85.13 222.21 77.15 222.84 69.19 221.69 C 56.91 218.79 47.13 209.05 44.36 196.72 C 41.08 182.92 47.60 167.93 59.87 160.85 C 66.13 157.01 73.02 156.16 80.23 155.96 Z" fill="#294172" />
                </g>
            </g>
        </g>
    </g>
</svg>
