<?xml version="1.0" encoding="UTF-8"?>
<svg width="60px" height="60px" viewBox="0 0 60 60" version="1.1" xmlns="http://www.w3.org/2000/svg" xmlns:xlink="http://www.w3.org/1999/xlink">
    <!-- Generator: Sketch 46.1 (44463) - http://www.bohemiancoding.com/sketch -->
    <title>freebsd_rounded</title>
    <desc>Created with Sketch.</desc>
    <defs>
        <ellipse id="path-1" cx="30" cy="30" rx="30" ry="30"/>
    </defs>
    <g id="Iland-Cloud" stroke="none" stroke-width="1" fill="none" fill-rule="evenodd">
        <g id="VM-Logo-Library" transform="translate(-43.000000, -447.000000)">
            <g id="freebsd_rounded" transform="translate(43.000000, 447.000000)">
                <mask id="mask-2" fill="white">
                    <use xlink:href="#path-1"></use>
                </mask>
                <use id="Rectangle-13" fill="#B5010F" xlink:href="#path-1"></use>
                <g id="freebsd" mask="url(#mask-2)" fill-rule="nonzero" fill="#FFFFFF">
                    <g transform="translate(15.000000, 15.000000)" id="Shape">
                        <path d="M29.6159766,0.601929825 C31.1989453,2.19215539 26.810625,9.18302256 26.0687109,9.92913283 C25.3269141,10.6737118 23.4426562,9.98861905 21.8605078,8.39780451 C20.2775391,6.80757895 19.595625,4.91309023 20.3375391,4.16733333 C21.0789844,3.42134085 28.0333594,-0.98935589 29.6159766,0.60181203 M7.41855469,2.28450627 C5.00191406,0.906310777 1.56316406,-0.626902256 0.469335938,0.472827068 C-0.639023437,1.58645614 0.942070312,5.1207619 2.32769531,7.5542782 C3.56183028,5.39913968 5.31168737,3.58778582 7.41855469,2.28450627"></path>
                        <path d="M27.2019141,9.3806817 C27.4244531,10.1392782 27.3844922,10.7659449 27.0235547,11.1280451 C26.180625,11.9756942 23.9035547,11.0733885 21.8508984,9.10975439 C21.7055074,8.97915733 21.5637724,8.84450503 21.4258594,8.70595489 C20.6835938,7.95960902 20.1060938,7.16520301 19.7367188,6.43358145 C19.0177734,5.13713534 18.8378906,3.99217293 19.3812891,3.44584211 C19.6774219,3.14852882 20.1512109,3.06748622 20.7291797,3.17196992 C21.1060547,2.93237594 21.5510156,2.66545363 22.0388672,2.39205263 C20.055,1.35192732 17.7994922,0.764486216 15.406875,0.764486216 C7.47105469,0.764486216 1.03757813,7.23022556 1.03757813,15.2078571 C1.03757813,23.1840752 7.47117188,29.6506391 15.406875,29.6506391 C23.3428125,29.6506391 29.7759375,23.1840752 29.7759375,15.2078571 C29.7759375,12.6316917 29.1032813,10.2160802 27.9282422,8.12181203 C27.6742969,8.58768922 27.4273828,9.01445865 27.2019141,9.3806817"></path>
                    </g>
                </g>
            </g>
        </g>
    </g>
</svg>