<?xml version="1.0" encoding="UTF-8"?>
<svg width="60px" height="60px" viewBox="0 0 60 60" version="1.1" xmlns="http://www.w3.org/2000/svg" xmlns:xlink="http://www.w3.org/1999/xlink">
    <!-- Generator: sketchtool 53.1 (72631) - https://sketchapp.com -->
    <title>BFBC2776-BAC5-4CE7-BED4-B6BD368F13AD</title>
    <desc>Created with sketchtool.</desc>
    <g id="Secure-Cloud-V9" stroke="none" stroke-width="1" fill="none" fill-rule="evenodd">
        <g id="VM-Logo-Library" transform="translate(-49.000000, -447.000000)">
            <g id="freebsd_square" transform="translate(49.000000, 447.000000)">
                <path d="M0,6.0000383 C0,2.68630865 2.69463714,0 6.0000383,0 L60,0 L60,60 L6.0000383,60 C2.68630865,60 0,57.3053629 0,53.9999617 L0,6.0000383 Z" id="Rectangle-14" fill="#ED5151"></path>
                <g id="freebsd" transform="translate(12.000000, 12.000000)" fill="#FFFFFF" fill-rule="nonzero">
                    <path d="M35.5391719,0.722315789 C37.4387344,2.63058647 32.17275,11.0196271 31.2824531,11.9149594 C30.3922969,12.8084541 28.1311875,11.9863429 26.2326094,10.0773654 C24.3330469,8.16909474 23.51475,5.89570827 24.4050469,5.0008 C25.2947812,4.10560902 33.6400312,-1.18722707 35.5391719,0.722174436 M8.90226562,2.74140752 C6.00229687,1.08757293 1.87579687,-0.752282707 0.563203125,0.567392481 C-0.766828125,1.90374737 1.13048437,6.14491429 2.79323437,9.06513383 C4.27419634,6.47896761 6.37402485,4.30534298 8.90226562,2.74140752" id="Shape"></path>
                    <path d="M32.6422969,11.256818 C32.9093438,12.1671338 32.8613906,12.9191338 32.4282656,13.3536541 C31.41675,14.3708331 28.6842656,13.2880662 26.2210781,10.9317053 C26.0466088,10.7749888 25.8765269,10.613406 25.7110313,10.4471459 C24.8203125,9.55153083 24.1273125,8.59824361 23.6840625,7.72029774 C22.8213281,6.16456241 22.6054688,4.79060752 23.2575469,4.13501053 C23.6129063,3.77823459 24.1814531,3.68098346 24.8750156,3.80636391 C25.3272656,3.51885113 25.8612188,3.19854436 26.4466406,2.87046316 C24.066,1.62231278 21.3593906,0.917383459 18.48825,0.917383459 C8.96526563,0.917383459 1.24509375,8.67627068 1.24509375,18.2494286 C1.24509375,27.8208902 8.96540625,35.5807669 18.48825,35.5807669 C28.011375,35.5807669 35.731125,27.8208902 35.731125,18.2494286 C35.731125,15.1580301 34.9239375,12.2592962 33.5138906,9.74617444 C33.2091563,10.3052271 32.9128594,10.8173504 32.6422969,11.256818" id="Shape"></path>
                </g>
            </g>
        </g>
    </g>
</svg>