<?xml version="1.0" encoding="UTF-8"?>
<svg width="60px" height="60px" viewBox="0 0 60 60" version="1.1" xmlns="http://www.w3.org/2000/svg" xmlns:xlink="http://www.w3.org/1999/xlink">
    <title>genericvmicon</title>
    <defs>
        <path id="path-1" d="M0,54 a 6 6 0 0 0 6 6 h54 v-60 h-54 a 6 6 0 0 0 -6 6z"/>
    </defs>
    <g id="Iland-Cloud" stroke="none" stroke-width="1" fill="none" fill-rule="evenodd">
        <g id="VM-Logo-Library" transform="translate(-43.000000, -847.000000)">
            <g id="genericvmicon_rounded" transform="translate(43.000000, 847.000000)">
                <g id="Rectangle-13">
                    <use fill="#FFFFFF" fill-rule="evenodd" xlink:href="#path-1"></use>
                </g>
                <path d="M42.7953064,16 L17.1681877,16 C16.5110821,16 16,16.5110821 16,17.1681877 L16,42.8318123 C16,43.4889179 16.5110821,44 17.1681877,44 L42.8318123,44 C43.4889179,44 44,43.4889179 44,42.8318123 L44,17.1681877 C43.9634941,16.5110821 43.452412,16 42.7953064,16 Z M19.5045632,18.3363755 C20.1616688,18.3363755 20.672751,18.8474576 20.672751,19.5045632 C20.672751,20.1616688 20.1616688,20.672751 19.5045632,20.672751 C18.8474576,20.672751 18.3363755,20.1616688 18.3363755,19.5045632 C18.3363755,18.8474576 18.8474576,18.3363755 19.5045632,18.3363755 Z M41.6271186,41.0430248 C41.6271186,41.3715776 41.3715776,41.6271186 41.0430248,41.6271186 L18.9204694,41.6271186 C18.5919166,41.6271186 18.3363755,41.3715776 18.3363755,41.0430248 L18.3363755,23.5567145 C18.3363755,23.2281617 18.5919166,22.9726206 18.9204694,22.9726206 L41.0795306,22.9726206 C41.4080834,22.9726206 41.6636245,23.2281617 41.6636245,23.5567145 L41.6636245,41.0430248 L41.6271186,41.0430248 Z M22.0234681,33.9608866 C21.767927,33.7053455 21.767927,33.2307692 22.0234681,32.9752282 L25.1629726,29.8357236 C25.4185137,29.5801825 25.89309,29.5801825 26.148631,29.8357236 C26.4041721,30.0912647 26.4041721,30.5658409 26.148631,30.821382 L23.0091265,33.9608866 C22.7535854,34.2164276 22.2790091,34.2164276 22.0234681,33.9608866 Z M25.1629726,30.821382 L22.0234681,27.6818774 C21.767927,27.4263364 21.767927,26.9517601 22.0234681,26.696219 C22.2790091,26.440678 22.7535854,26.440678 23.0091265,26.696219 L26.148631,29.8357236 C26.4041721,30.0912647 26.4041721,30.5658409 26.148631,30.821382 C25.89309,31.0769231 25.4185137,31.0769231 25.1629726,30.821382 Z M28.8135593,33.4863103 C28.8135593,33.0847458 29.1421121,32.7926988 29.5071708,32.7926988 L33.9243807,32.7926988 C34.3259452,32.7926988 34.6179922,33.1212516 34.6179922,33.4863103 C34.6179922,33.851369 34.3259452,34.1799218 33.9608866,34.1799218 L29.5071708,34.1799218 C29.1421121,34.1799218 28.8135593,33.851369 28.8135593,33.4863103 Z" id="Shape" fill="#87A1B5" fill-rule="nonzero"></path>
            </g>
        </g>
    </g>
</svg>
