<?xml version="1.0" encoding="UTF-8"?>
<svg width="60px" height="60px" viewBox="0 0 60 60" version="1.1" xmlns="http://www.w3.org/2000/svg" xmlns:xlink="http://www.w3.org/1999/xlink">
    <!-- Generator: sketchtool 53.1 (72631) - https://sketchapp.com -->
    <title>F5D51ED8-6424-49B4-85FD-D8F8F15EABB9</title>
    <desc>Created with sketchtool.</desc>
    <g id="Secure-Cloud-V9" stroke="none" stroke-width="1" fill="none" fill-rule="evenodd">
        <g id="VM-Logo-Library" transform="translate(-49.000000, -847.000000)">
            <g id="genericvmicon_square" transform="translate(49.000000, 847.000000)">
                <path d="M0,6.0000383 C0,2.68630865 2.69463714,0 6.0000383,0 L60,0 L60,60 L6.0000383,60 C2.68630865,60 0,57.3053629 0,53.9999617 L0,6.0000383 Z" id="genericvmicon_" fill="#03A6FF"></path>
                <path d="M31.5,42.8320138 L42,36.8083893 L42,24.9452249 L31.5,30.9125052 L31.5,42.8320138 Z M28.5,30.9095649 L18,24.90238 L18,36.8327221 L28.5,42.8350554 L28.5,30.9095649 Z M30,16.3191925 L19.5889679,22.2757174 L30.0150146,28.2393979 L40.4504707,22.2982815 L30,16.3191925 Z M15.7715356,20.9217569 L29.2715356,13.1944842 C29.7245694,12.9351719 30.2754306,12.9351719 30.7284644,13.1944842 L44.2284644,20.9217569 C44.7046622,21.1943281 45,21.711469 45,22.2727273 L45,37.7272727 C45,38.288531 44.7046622,38.8056719 44.2284644,39.0782431 L30.7284644,46.8055158 C30.2754306,47.0648281 29.7245694,47.0648281 29.2715356,46.8055158 L15.7715356,39.0782431 C15.2953378,38.8056719 15,38.288531 15,37.7272727 L15,22.2727273 C15,21.711469 15.2953378,21.1943281 15.7715356,20.9217569 Z" id="Combined-Shape" fill="#DFF0FA"></path>
            </g>
        </g>
    </g>
</svg>