<?xml version="1.0" encoding="UTF-8"?>
<svg width="60px" height="60px" viewBox="0 0 60 60" version="1.1" xmlns="http://www.w3.org/2000/svg" xmlns:xlink="http://www.w3.org/1999/xlink">
    <!-- Generator: sketchtool 53.1 (72631) - https://sketchapp.com -->
    <title>31960FF4-E102-4534-91F3-1271C9BC2180</title>
    <desc>Created with sketchtool.</desc>
    <defs>
        <linearGradient x1="48.5441027%" y1="115.276174%" x2="51.0500045%" y2="41.3637237%" id="linearGradient-1">
            <stop stop-color="#FFEED7" offset="0%"></stop>
            <stop stop-color="#BDBFC2" offset="100%"></stop>
        </linearGradient>
        <linearGradient x1="54.4065463%" y1="2.52305511%" x2="46.1753957%" y2="90.4409135%" id="linearGradient-2">
            <stop stop-color="#FFFFFF" stop-opacity="0.8" offset="0%"></stop>
            <stop stop-color="#FFFFFF" stop-opacity="0" offset="100%"></stop>
        </linearGradient>
        <linearGradient x1="51.8643122%" y1="88.2477484%" x2="47.9417958%" y2="9.74782136%" id="linearGradient-3">
            <stop stop-color="#FFEED7" offset="0%"></stop>
            <stop stop-color="#BDBFC2" offset="100%"></stop>
        </linearGradient>
        <linearGradient x1="49.9249221%" y1="85.4900173%" x2="49.9234931%" y2="13.8109272%" id="linearGradient-4">
            <stop stop-color="#FFEED7" offset="0%"></stop>
            <stop stop-color="#BDBFC2" offset="100%"></stop>
        </linearGradient>
        <linearGradient x1="53.9111818%" y1="3.10177585%" x2="45.9454023%" y2="93.8949571%" id="linearGradient-5">
            <stop stop-color="#FFFFFF" stop-opacity="0.65" offset="0%"></stop>
            <stop stop-color="#FFFFFF" stop-opacity="0" offset="100%"></stop>
        </linearGradient>
        <linearGradient x1="45.5818344%" y1="5.47459052%" x2="54.8234135%" y2="93.5235162%" id="linearGradient-6">
            <stop stop-color="#FFFFFF" stop-opacity="0.65" offset="0%"></stop>
            <stop stop-color="#FFFFFF" stop-opacity="0" offset="100%"></stop>
        </linearGradient>
        <linearGradient x1="49.9844987%" y1="89.8452442%" x2="49.9844987%" y2="40.6316864%" id="linearGradient-7">
            <stop stop-color="#FFEED7" offset="0%"></stop>
            <stop stop-color="#BDBFC2" offset="100%"></stop>
        </linearGradient>
        <linearGradient x1="53.5134939%" y1="99.97524%" x2="42.7274215%" y2="23.5451715%" id="linearGradient-8">
            <stop stop-color="#FFEED7" offset="0%"></stop>
            <stop stop-color="#BDBFC2" offset="100%"></stop>
        </linearGradient>
        <linearGradient x1="49.8413363%" y1="13.3208524%" x2="50.2412612%" y2="94.5613246%" id="linearGradient-9">
            <stop stop-color="#FFFFFF" stop-opacity="0.8" offset="0%"></stop>
            <stop stop-color="#FFFFFF" stop-opacity="0" offset="100%"></stop>
        </linearGradient>
        <linearGradient x1="49.9272298%" y1="37.3587054%" x2="50.7270446%" y2="92.6755533%" id="linearGradient-10">
            <stop stop-color="#FFFFFF" stop-opacity="0.65" offset="0%"></stop>
            <stop stop-color="#FFFFFF" stop-opacity="0" offset="100%"></stop>
        </linearGradient>
        <linearGradient x1="49.8755597%" y1="2.29900584%" x2="49.8755597%" y2="81.203617%" id="linearGradient-11">
            <stop stop-color="#FFFFFF" stop-opacity="0.65" offset="0%"></stop>
            <stop stop-color="#FFFFFF" stop-opacity="0" offset="100%"></stop>
        </linearGradient>
        <linearGradient x1="49.8330218%" y1="2.27189065%" x2="49.8235989%" y2="71.7989617%" id="linearGradient-12">
            <stop stop-color="#FFFFFF" stop-opacity="0.65" offset="0%"></stop>
            <stop stop-color="#FFFFFF" stop-opacity="0" offset="100%"></stop>
        </linearGradient>
        <linearGradient x1="53.4670683%" y1="48.9240817%" x2="38.9488708%" y2="97.9797682%" id="linearGradient-13">
            <stop stop-color="#FFA63F" offset="0%"></stop>
            <stop stop-color="#FFFF00" offset="100%"></stop>
        </linearGradient>
        <linearGradient x1="52.3731508%" y1="142.776465%" x2="47.57909%" y2="-64.3350816%" id="linearGradient-14">
            <stop stop-color="#FFEED7" offset="0%"></stop>
            <stop stop-color="#BDBFC2" offset="100%"></stop>
        </linearGradient>
        <linearGradient x1="30.5321618%" y1="34.0241079%" x2="65.9265053%" y2="89.175349%" id="linearGradient-15">
            <stop stop-color="#FFA63F" offset="0%"></stop>
            <stop stop-color="#FFFF00" offset="100%"></stop>
        </linearGradient>
        <linearGradient x1="59.5954897%" y1="-17.2155207%" x2="48.3567454%" y2="66.1184465%" id="linearGradient-16">
            <stop stop-color="#FFFFFF" stop-opacity="0.65" offset="0%"></stop>
            <stop stop-color="#FFFFFF" stop-opacity="0" offset="100%"></stop>
        </linearGradient>
        <linearGradient x1="47.7633656%" y1="1.56481301%" x2="51.3767435%" y2="104.312856%" id="linearGradient-17">
            <stop stop-color="#FFFFFF" stop-opacity="0.65" offset="0%"></stop>
            <stop stop-color="#FFFFFF" stop-opacity="0" offset="100%"></stop>
        </linearGradient>
        <linearGradient x1="43.5495626%" y1="4.6471141%" x2="57.1143288%" y2="92.7196867%" id="linearGradient-18">
            <stop stop-color="#FFFFFF" stop-opacity="0.65" offset="0%"></stop>
            <stop stop-color="#FFFFFF" stop-opacity="0" offset="100%"></stop>
        </linearGradient>
        <linearGradient x1="49.7328042%" y1="17.689473%" x2="50.5582487%" y2="99.2620446%" id="linearGradient-19">
            <stop stop-color="#FFA63F" offset="0%"></stop>
            <stop stop-color="#FFFF00" offset="100%"></stop>
        </linearGradient>
        <linearGradient x1="50.1697217%" y1="3.00821943%" x2="49.6802359%" y2="94.060039%" id="linearGradient-20">
            <stop stop-color="#FFFFFF" stop-opacity="0.65" offset="0%"></stop>
            <stop stop-color="#FFFFFF" stop-opacity="0" offset="100%"></stop>
        </linearGradient>
    </defs>
    <g id="Secure-Cloud-V9" stroke="none" stroke-width="1" fill="none" fill-rule="evenodd">
        <g id="VM-Logo-Library" transform="translate(-49.000000, -283.000000)">
            <g id="linux_square" transform="translate(49.000000, 283.000000)">
                <path d="M0,6.0000383 C0,2.68630865 2.69463714,0 6.0000383,0 L60,0 L60,60 L6.0000383,60 C2.68630865,60 0,57.3053629 0,53.9999617 L0,6.0000383 Z" id="Rectangle-14" fill="#FFCD00"></path>
                <g id="tux-seeklogo.com-2" transform="translate(12.000000, 8.000000)" fill-rule="nonzero">
                    <g id="tux-seeklogo.com">
                        <path d="M36.8628841,39.0454791 C36.8628841,41.7630887 28.6134677,43.9774371 18.4348686,43.9774371 C8.25626925,43.9774371 0.00685291828,41.7774675 0.00685291828,39.0454791 L0.00685291828,39.0454791 C0.00685291828,36.3278697 8.25626925,34.1135213 18.4348686,34.1135213 C28.6134677,34.1135213 36.8484872,36.3278697 36.8628841,39.0454791 L36.8628841,39.0454791 L36.8628841,39.0454791 Z" id="Path" fill-opacity="0.2" fill="#000000"></path>
                        <path d="M8.34265058,33.7396704 C6.55743658,31.1802286 6.21191128,22.8404748 10.3726117,17.7072127 C12.4313665,15.2484231 12.9640514,13.5373357 13.1224171,11.2223351 C13.2375922,8.59099895 11.2652187,0.754506153 18.6940125,0.164971834 C26.2235844,-0.438941373 25.8060747,6.98056374 25.7628841,10.9059996 C25.7340903,14.2131433 28.195958,16.0967774 29.8947906,18.6849767 C33.0189152,23.4300091 32.7597712,31.5972163 29.3045183,36.0259132 C24.9278647,41.5617842 21.1846739,39.1605103 18.6940125,39.3618147 C14.029421,39.6350135 13.8710553,42.108182 8.34265058,33.7396704 L8.34265058,33.7396704 Z" id="Path" fill="#000000"></path>
                        <path d="M26.5115222,19.1738589 C27.807242,20.3673064 31.1617167,25.7018731 25.8492653,29.0377746 C23.97767,30.2024643 27.5193042,34.6311613 29.218137,32.4887073 C32.2270864,28.6351659 30.3123003,22.4810027 28.4982925,20.2810332 C27.2889541,18.7281135 25.4173588,18.1242003 26.5115222,19.1738589 L26.5115222,19.1738589 Z" id="Path" fill="url(#linearGradient-1)"></path>
                        <path d="M26.1516,18.4549147 C28.2823392,20.1803809 32.1551019,26.2195129 26.4971253,30.1593277 C24.6399269,31.381533 28.1383705,35.2494533 30.1107439,33.2795459 C36.9492653,26.4064386 29.9379814,18.5124302 27.5193042,15.7948208 C25.3597712,13.4223046 23.4449852,16.3412184 26.1516,18.4549147 L26.1516,18.4549147 Z" id="Path" stroke="#000000" stroke-width="0.9773" fill="#000000"></path>
                        <path d="M23.085063,3.91786104 C23.0130786,5.8877684 20.8391486,7.59885582 18.233312,7.75702356 C15.6274755,7.91519132 13.5831175,6.41978718 13.6551019,4.44987982 L13.6551019,4.44987982 C13.7270864,2.47997245 15.9010164,0.76888504 18.506853,0.610717294 C21.1126895,0.466928437 23.1570475,1.94795367 23.085063,3.91786104 L23.085063,3.91786104 L23.085063,3.91786104 Z" id="Path" fill="url(#linearGradient-2)"></path>
                        <path d="M16.8512109,8.60537784 C16.9231953,9.88509867 16.3185261,10.9635151 15.4835066,11.0066518 C14.6484872,11.0497884 13.9142459,10.0576453 13.8422615,8.77792446 L13.8422615,8.77792446 C13.770277,7.49820361 14.3749463,6.41978718 15.2099658,6.37665052 C16.0449852,6.33351386 16.7792264,7.32565699 16.8512109,8.60537784 L16.8512109,8.60537784 L16.8512109,8.60537784 Z" id="Path" fill="url(#linearGradient-3)"></path>
                        <path d="M18.3628841,8.70603003 C18.3916778,10.1870553 19.3562692,11.3661239 20.5080203,11.3373661 C21.6597712,11.3086084 22.566775,10.0864031 22.5379814,8.59099895 L22.5379814,8.59099895 C22.5091875,7.1099737 21.5445961,5.93090506 20.3928451,5.95966283 C19.2410942,5.98842061 18.3196934,7.2250048 18.3628841,8.70603003 L18.3628841,8.70603003 L18.3628841,8.70603003 Z" id="Path" fill="url(#linearGradient-4)"></path>
                        <path d="M19.3130786,9.03674441 C19.2986817,9.8563409 19.7017945,10.5177696 20.2344794,10.5177696 C20.7527673,10.5177696 21.1990708,9.8563409 21.2134677,9.0511233 L21.2134677,9.0511233 C21.2278647,8.2315268 20.8247517,7.57009805 20.2920669,7.57009805 C19.7593822,7.57009805 19.3274755,8.2315268 19.3130786,9.03674441 L19.3130786,9.03674441 L19.3130786,9.03674441 Z" id="Path" fill="#000000"></path>
                        <path d="M15.9873977,9.0511233 C16.0593822,9.72693093 15.8002381,10.3020864 15.4259191,10.3596019 C15.0516,10.4027386 14.6916778,9.89947756 14.6196934,9.22366992 L14.6196934,9.22366992 C14.5477089,8.54786229 14.8068529,7.97270685 15.181172,7.91519132 C15.5554911,7.87205466 15.9154133,8.37531566 15.9873977,9.0511233 L15.9873977,9.0511233 L15.9873977,9.0511233 Z" id="Path" fill="#000000"></path>
                        <path d="M19.5290319,8.57662006 C19.4858412,9.03674441 19.7017945,9.41059544 20.0041292,9.43935321 C20.3064639,9.46811099 20.5944016,9.10863883 20.6375922,8.66289337 L20.6375922,8.66289337 C20.6807828,8.20276902 20.4648295,7.828918 20.162495,7.80016022 C19.8601603,7.77140245 19.5722225,8.1308746 19.5290319,8.57662006 L19.5290319,8.57662006 L19.5290319,8.57662006 Z" id="Path" fill="url(#linearGradient-5)"></path>
                        <path d="M15.6706661,8.69165114 C15.7138569,9.06550219 15.5554911,9.39621655 15.3251409,9.42497432 C15.0947907,9.4537321 14.8788374,9.16615438 14.8356467,8.77792446 L14.8356467,8.77792446 C14.792456,8.40407342 14.9508218,8.07335906 15.181172,8.04460128 C15.4115222,8.01584351 15.6274755,8.31780012 15.6706661,8.69165114 L15.6706661,8.69165114 L15.6706661,8.69165114 Z" id="Path" fill="url(#linearGradient-6)"></path>
                        <path d="M11.1356467,22.811717 C12.1578257,20.4967165 14.3317556,16.4274918 14.3749463,13.2785157 C14.3749463,10.7765896 21.8757245,10.1726764 22.4803938,12.6746025 C23.085063,15.1765287 24.6111331,18.915039 25.5901214,20.7267786 C26.5691097,22.5241393 29.4052964,28.2613148 26.3819502,33.265167 C23.6609386,37.6938639 15.4115222,41.2023121 11.0060747,32.6612539 C9.50879844,29.6992035 9.7823393,26.0325875 11.1356467,22.811717 L11.1356467,22.811717 Z" id="Path" fill="url(#linearGradient-7)"></path>
                        <path d="M10.2142459,21.0862507 C9.3360358,22.7398226 7.52202802,27.0822461 11.9562693,29.4547623 C16.7216389,31.9854463 16.707242,37.176224 10.9772809,34.7030557 C5.736814,32.4743284 8.05471284,23.444388 9.52319533,21.2875551 C10.4733899,19.7777722 11.9130786,17.9228958 10.2142459,21.0862507 L10.2142459,21.0862507 Z" id="Path" fill="url(#linearGradient-8)"></path>
                        <path d="M10.9628841,19.2169956 C9.566386,21.4888595 6.22630817,26.8378052 10.7037401,29.627309 C16.7216389,33.3226827 15.0228062,37.0036774 9.52319533,33.6821547 C1.77767003,29.0521536 8.58739767,19.7058777 11.6827284,16.139914 C15.2243626,12.1425837 12.3593821,16.8732371 10.9628841,19.2169956 L10.9628841,19.2169956 Z" id="Path" stroke="#000000" stroke-width="1.25" fill="#000000"></path>
                        <path d="M24.5247517,23.6888291 C24.5247517,26.2195129 22.0916778,29.4978989 17.9165806,29.4691412 C13.6119113,29.4978989 11.7835066,26.2195129 11.7835066,23.6888291 C11.7835066,21.1581452 14.6340903,19.1019646 18.1469308,19.1019646 C21.6741681,19.1163433 24.5247517,21.1581452 24.5247517,23.6888291 L24.5247517,23.6888291 Z" id="Path" fill="url(#linearGradient-9)"></path>
                        <path d="M22.2500436,15.7373053 C22.206853,18.3542624 20.4936233,18.9725545 18.3340903,18.9725545 C16.1745572,18.9725545 14.6052965,18.5843246 14.418137,15.7373053 C14.418137,13.9543234 16.1745572,12.9190436 18.3340903,12.9190436 C20.4936233,12.9046647 22.2500436,13.9399445 22.2500436,15.7373053 L22.2500436,15.7373053 Z" id="Path" fill="url(#linearGradient-10)"></path>
                        <path d="M9.19206692,19.7633933 C10.6029619,17.6209393 13.5831175,14.3281744 9.75354553,20.2235175 C6.64381789,25.0835811 8.60179455,28.2037993 9.60957666,29.0665325 C12.5177479,31.6547318 12.4025728,33.3945771 10.1134677,32.0285829 C5.20412919,29.1096691 6.22630817,24.1920902 9.19206692,19.7633933 L9.19206692,19.7633933 Z" id="Path" fill="url(#linearGradient-11)"></path>
                        <path d="M29.6212498,20.6405052 C28.3975144,18.1242003 24.5103549,11.7399749 29.8084094,19.1594801 C34.6313666,25.8744197 31.2480981,30.5475576 30.6434288,31.007682 C30.0387595,31.4678063 28.0087984,32.402434 28.5990708,30.7776198 C29.20374,29.1528057 32.1982925,26.0757241 29.6212498,20.6405052 L29.6212498,20.6405052 Z" id="Path" fill="url(#linearGradient-12)"></path>
                        <path d="M8.12669728,40.4833678 C4.90179455,38.7722803 0.222806225,40.8140821 1.92163891,36.184081 C2.2671642,35.1344223 1.41774786,33.5527448 1.96482958,32.5318439 C2.6126895,31.2808809 4.00918755,31.5540797 4.844207,30.7201043 C5.66482958,29.8573711 6.1831175,28.361967 7.72358444,28.5920291 C9.24965447,28.8220913 10.2718335,30.6913465 11.3372031,32.9919682 C12.1290319,34.6311613 14.922028,36.9461619 14.7348685,38.7866592 C14.5045183,41.6049209 11.2940124,42.1369396 8.12669728,40.4833678 L8.12669728,40.4833678 Z" id="Path" fill="url(#linearGradient-13)"></path>
                        <path d="M12.4235645,40.8347953 C13.5080888,40.5886207 14.1539805,39.879483 14.2474395,38.7372166 C14.3018763,38.2018934 14.0168522,37.5196594 13.3931632,36.6277394 C13.1702812,36.3090022 12.9246669,35.9884892 12.5545557,35.5254266 C11.3561209,34.0260114 11.1772276,33.7869011 10.8925235,33.1973753 C9.59969388,30.4055631 8.73764005,29.2397696 7.65112853,29.0759724 C6.94731739,28.9708612 6.57284984,29.2476492 5.86088222,30.2229113 C5.85121809,30.2361493 5.78873153,30.3218469 5.77041581,30.3469147 C5.52610253,30.6812948 5.3780355,30.8693348 5.19064438,31.0661085 C4.82726509,31.4290334 4.4933505,31.5887207 3.74836773,31.8436912 C3.73577441,31.8480012 3.73577441,31.8480012 3.72322876,31.8522959 C2.92412033,32.1258897 2.63459433,32.3036681 2.39678914,32.7627445 C2.22840769,33.0769585 2.2280644,33.4777451 2.35977116,34.3236449 C2.36417164,34.3519074 2.36757615,34.3736331 2.37548522,34.4239873 C2.53093337,35.4134847 2.55376667,35.8304965 2.38706707,36.3369071 L2.38165941,36.3524491 C1.92918701,37.5856181 1.96238435,38.2332519 2.32195698,38.5579246 C2.64273859,38.8475713 3.17961701,38.976066 4.497761,39.1217888 C5.51734038,39.2345048 5.81099134,39.2720522 6.32350138,39.3713161 C7.09654664,39.5210411 7.75884432,39.734325 8.35511042,40.0504728 C9.8208164,40.8153497 11.3029964,41.0891514 12.4235645,40.8347953 Z M1.40745543,34.5756829 C1.39950324,34.5250545 1.39602369,34.50285 1.39153527,34.4740227 C1.22702204,33.41742 1.22749024,32.8708079 1.52965939,32.3070373 C1.91377206,31.565348 2.38529947,31.2758148 3.40547746,30.9265325 C3.41812277,30.9222037 3.41812277,30.9222037 3.43071915,30.9178927 C4.0370592,30.7103727 4.27501609,30.5965751 4.48900335,30.3830828 C4.63007025,30.234777 4.75834648,30.0718706 4.97888417,29.7700311 C4.9968557,29.7454343 5.05918155,29.6599572 5.06911777,29.6463464 C5.49117415,29.0682083 5.73512011,28.7836436 6.08696572,28.5235767 C6.57913545,28.159789 7.14093464,28.0102486 7.79670879,28.1081861 C8.66615471,28.2392592 9.40621708,28.7903077 10.0972643,29.7248414 C10.6338422,30.4504794 11.1182343,31.3534398 11.7784684,32.7793432 C12.0116812,33.2621253 12.192034,33.5031862 13.3203542,34.914878 C13.7024929,35.3929887 13.9589078,35.727596 14.196513,36.0673884 C14.9437064,37.1359284 15.3068072,38.0050468 15.2231806,38.8264716 C14.9652436,41.9822488 11.4628807,42.7772451 7.89973216,40.917019 L7.89684103,40.9154974 C7.39539015,40.6494347 6.82225827,40.4647961 6.13695537,40.3320652 C5.66085638,40.2398534 5.38025014,40.203974 4.38995739,40.0944957 C2.84138385,39.9232986 2.20404297,39.7707595 1.66482344,39.2838764 C0.942008493,38.6312175 0.887169269,37.5856302 1.45851602,36.0241798 C1.55466727,35.7260131 1.53573542,35.3922426 1.40745543,34.5756829 Z" id="Path" fill="#E68C3F"></path>
                        <path d="M31.6080203,29.6129301 C31.1185261,30.5331788 29.0741681,32.014204 27.7064639,31.6259741 C26.3243627,31.252123 25.6908997,29.1528057 25.9644405,27.5567494 C26.2235844,25.7737676 27.7064639,25.6731153 29.5780592,26.5646062 C31.5936233,27.5567494 32.1982925,28.3907247 31.6080203,29.6129301 L31.6080203,29.6129301 Z" id="Path" fill="url(#linearGradient-14)"></path>
                        <path d="M30.485063,39.692529 C32.8461525,36.8311307 38.1010164,37.4206651 34.5593822,33.4952292 C33.8107439,32.6468749 34.0410942,30.8351353 33.1196934,30.0586755 C32.0399269,29.1096691 30.8449852,29.8861289 29.7508217,29.3972468 C28.6566583,28.8652279 27.5049075,27.8443271 26.1659969,28.5632714 C24.8270864,29.2965945 24.6831175,31.1946075 24.5535455,33.6965336 C24.4383705,35.4938943 22.7971253,38.4990815 23.6753353,40.1526535 C24.9422614,42.7120951 28.2391486,42.3670019 30.485063,39.692529 L30.485063,39.692529 Z" id="Path" fill="url(#linearGradient-15)"></path>
                        <path d="M31.1573683,29.0758012 C31.2324887,29.0727422 31.2664571,29.0714016 31.3090266,29.0698806 C32.26132,29.0358573 32.8384763,29.1596292 33.4356745,29.6846475 C33.9480124,30.1163921 34.1500773,30.62558 34.3982777,31.7119405 C34.4084804,31.7566513 34.4084804,31.7566513 34.4185897,31.8010365 C34.6020702,32.60641 34.7147217,32.9311235 34.9233909,33.1676315 C36.9135748,35.3734887 36.6027527,36.6076786 34.4555895,37.7047209 C34.3282016,37.7698067 33.1717119,38.3273599 32.8238452,38.5128612 C31.9578303,38.9746671 31.3345088,39.4325764 30.8631924,40.0037636 L30.8604902,40.0070097 C28.3772675,42.9640734 24.6667254,43.2597009 23.2424702,40.3819731 C22.7613644,39.4761044 22.8472042,38.3723711 23.3237731,36.6488069 C23.3786808,36.4502269 23.4354408,36.2536161 23.5188351,35.9706158 C23.9274384,34.5840118 24.0322243,34.1698072 24.0642084,33.6712547 C24.152659,31.9633479 24.2325278,31.1421365 24.4308507,30.3482131 C24.6961174,29.2863016 25.1614403,28.5553346 25.9339689,28.1322389 C26.5306082,27.8118662 27.1389852,27.7521527 27.7736934,27.9090346 C28.2299853,28.021817 28.6002551,28.1981372 29.2633083,28.5746815 C29.6910613,28.8176002 29.7820686,28.8679798 29.9577989,28.9535898 C30.2488984,29.0821407 30.5131817,29.1020337 31.1573683,29.0758012 Z M32.362281,37.6494628 C32.7316193,37.4525117 33.8988646,36.8897731 34.009274,36.8333621 C34.8026966,36.4279816 35.1608934,36.1283237 35.2418997,35.8066698 C35.3428078,35.4059909 35.0538919,34.7743818 34.1917864,33.8188069 C33.8289476,33.4076393 33.6851398,32.9931189 33.4630307,32.0181883 C33.4529195,31.9737946 33.4529195,31.9737946 33.4428529,31.9296805 C33.2424933,31.0527166 33.093286,30.6767258 32.7959914,30.4260586 C32.4225142,30.0978096 32.0694549,30.0220956 31.3440606,30.0480123 C31.3036608,30.0494557 31.2707872,30.0507531 31.1972919,30.0537459 C30.3997385,30.0862239 30.0285268,30.0574463 29.5507259,29.8439606 L29.5363406,29.8372517 C29.328543,29.7362135 29.2351392,29.684601 28.7789147,29.4255136 C27.6174065,28.7658993 27.0736764,28.6315046 26.4016007,28.9923647 C25.4749939,29.4998685 25.205703,30.5778898 25.0425364,33.7277899 C25.0034419,34.3378789 24.8938083,34.7712455 24.4589475,36.246955 C24.3769748,36.5251312 24.321531,36.7171825 24.2683978,36.9093447 C23.8565738,38.3987521 23.7852896,39.3153285 24.1145795,39.9357706 C25.1783149,42.0847267 28.0256135,41.8583613 30.1082774,39.3796655 C30.6741494,38.6944313 31.3938053,38.1659063 32.362281,37.6494628 Z" id="Path" fill="#E68C3F"></path>
                        <path d="M29.4628841,35.8677454 C33.1196934,30.4756632 30.3986817,30.5187999 29.4772809,30.1018122 C28.5558802,29.6704456 27.5912887,28.8220913 26.5115222,29.4116257 C25.4317556,30.0155389 25.3741681,31.5684586 25.3453744,33.6102603 C25.3021836,35.0769066 24.0784483,37.5356962 24.8126895,38.9016904 C25.7052964,40.4977467 27.8648295,38.1827461 29.4628841,35.8677454 L29.4628841,35.8677454 Z" id="Path" fill="url(#linearGradient-16)"></path>
                        <path d="M7.37805914,36.6442053 C1.90724203,33.1069994 4.46988794,31.8991729 5.2905105,31.3383964 C6.28389572,30.619452 6.29829261,29.239079 7.52202802,29.368489 C8.74576342,29.4978989 9.46560778,31.007682 10.2862304,32.8769372 C10.8908996,34.2141736 12.9928451,35.9971554 12.8344794,37.5356962 C12.6329229,39.3474358 9.73914864,38.1539882 7.37805914,36.6442053 L7.37805914,36.6442053 Z" id="Path" fill="url(#linearGradient-17)"></path>
                        <path d="M31.2912887,29.5697934 C30.8593822,30.3174955 29.1029619,31.4965642 27.9368139,31.1802286 C26.7418724,30.8782721 26.1947906,29.1959424 26.4395378,27.9306004 C26.6554911,26.4927119 27.9368139,26.4208175 29.5492653,27.1397617 C31.262495,27.9162215 31.7951797,28.5776503 31.2912887,29.5697934 L31.2912887,29.5697934 Z" id="Path" fill="#000000"></path>
                        <path d="M30.1107439,29.1528057 C29.8372031,29.6704456 28.6854522,30.4900421 27.8792264,30.2743588 C27.0730008,30.0586755 26.669888,28.8939858 26.79946,28.0168738 C26.914635,27.0247306 27.7784483,26.9672151 28.8726117,27.4560972 C30.0531564,28.0024949 30.4274755,28.4626192 30.1107439,29.1528057 L30.1107439,29.1528057 Z" id="Path" fill="url(#linearGradient-18)"></path>
                        <path d="M15.2243626,10.3883597 C15.8002381,9.8563409 17.1967361,8.2315268 19.8457634,9.92823533 C20.3352575,10.2445708 20.7383705,10.2733286 21.6741681,10.6759374 C23.5601603,11.4523972 22.6675533,13.3216524 20.6519891,13.9543234 C19.7881759,14.2275222 19.0107439,15.2771809 17.4558802,15.1765287 C16.1169697,15.1046342 15.7714444,14.2275222 14.9508218,13.753019 C13.4967362,12.9334225 13.2807829,11.8262483 14.0726117,11.2367139 C14.8644405,10.6471796 15.1667751,10.4314963 15.2243626,10.3883597 L15.2243626,10.3883597 Z" id="Path" fill="url(#linearGradient-19)"></path>
                        <path d="M15.4239751,10.6038871 L15.4007398,10.6232351 C15.3866616,10.6337806 15.1976071,10.7712611 15.0975642,10.8444681 C14.8670543,11.0131454 14.5920141,11.2162009 14.2483024,11.472102 C13.6125814,11.9454105 13.8732029,12.808496 15.0981073,13.4989347 C15.3442017,13.6412323 15.5135455,13.7788392 15.8461362,14.0823433 L15.8657504,14.1002432 C16.4820413,14.6626251 16.8098142,14.847819 17.4748934,14.8835491 C18.188171,14.9297223 18.7083373,14.7451167 19.4368974,14.2881645 C19.4861848,14.2572516 19.7676695,14.0773559 19.847999,14.0276084 C20.0084043,13.9282705 20.1389235,13.8544311 20.2675549,13.7928777 C20.3686852,13.7444842 20.4662752,13.7050961 20.5638516,13.6742362 C21.4610865,13.3926007 22.1378734,12.8386986 22.3506022,12.2668063 C22.5507204,11.7288158 22.3091228,11.2549072 21.5578697,10.9455781 C21.3281841,10.8467603 21.1203619,10.7659464 20.8955312,10.68572 C20.7992907,10.6513785 20.462591,10.5357327 20.3864484,10.508322 C20.1962045,10.4398358 20.0530339,10.3798428 19.9112538,10.3059122 C19.8348773,10.2660861 19.760485,10.2228202 19.6870732,10.175375 C18.1253319,9.17507575 16.9988352,9.28833939 15.992644,10.0889338 C15.8885631,10.1717477 15.7892072,10.2589155 15.6776934,10.363229 C15.6338155,10.4042738 15.4638456,10.567053 15.4239751,10.6038871 Z M15.2757932,9.93466119 C15.3978831,9.82045451 15.5085191,9.72339029 15.626307,9.62967019 C16.8210033,8.67908826 18.2203742,8.53838848 20.0054585,9.68174232 C20.0644788,9.71988417 20.1230882,9.75397086 20.1833543,9.78539633 C20.2982435,9.84530474 20.4184443,9.89567266 20.5858062,9.95592159 C20.6567555,9.98146274 20.99241,10.0967495 21.0933372,10.1327634 C21.3293197,10.2169691 21.5486059,10.3022409 21.7861983,10.4045001 C22.8127557,10.827132 23.2177812,11.6216149 22.9017224,12.4712961 C22.6194714,13.2300893 21.7981064,13.9023183 20.7407338,14.2342192 C20.6714535,14.2561305 20.5990883,14.2853378 20.5215904,14.3224225 C20.4151904,14.3733376 20.3017312,14.4375255 20.157824,14.5266463 C20.0818436,14.5737004 19.802303,14.7523536 19.7495641,14.7854314 C18.9260215,15.3019565 18.2970157,15.5251889 17.4400986,15.4696996 C16.611911,15.425229 16.176601,15.1792759 15.4691834,14.5337384 L15.4495646,14.5158344 C15.1472556,14.2399637 15.0016973,14.1216846 14.8063428,14.0087055 C13.2629241,13.1387563 12.8523379,11.7790414 13.8969209,11.0013259 C14.241916,10.7444693 14.5182581,10.5404527 14.7500911,10.3708072 C14.8404996,10.3046502 14.9924267,10.1941165 15.0362534,10.1620911 C15.0872218,10.1141983 15.2320081,9.97561914 15.2757932,9.93466119 Z" id="Path" fill="#E68C3F"></path>
                        <path d="M14.2166926,12.177151 C14.2201464,12.1782958 14.2288439,12.1801455 14.2453743,12.1801455 L14.2453743,11.7886865 C14.3836204,11.7886865 14.465835,11.8520053 14.7340372,12.1019187 C14.7541986,12.1207053 14.8441904,12.2049664 14.8690852,12.2281682 C14.9250227,12.2803014 14.9724639,12.3239663 15.0200917,12.3669631 C15.1413106,12.4763953 15.2547104,12.573122 15.3709578,12.6647399 C16.0148501,13.1722101 16.6670691,13.4566372 17.3982925,13.4566372 C18.1360937,13.4566372 18.8755036,13.1743757 19.8590785,12.6054643 C19.9688945,12.5419454 20.6823902,12.1142466 20.8659859,12.0128157 C21.2234904,11.8153055 21.4749343,11.7145445 21.6922883,11.7027037 L21.7136356,12.0935817 C21.5731764,12.1012335 21.3638692,12.1851091 21.0557053,12.3553601 C20.8793692,12.4527804 20.1706677,12.8776053 20.0555071,12.9442156 C19.0168314,13.5449979 18.2228375,13.8480963 17.3982925,13.8480963 C16.566254,13.8480963 15.835216,13.5292969 15.1281566,12.9720429 C15.0044272,12.8745282 14.8845511,12.7722775 14.7572662,12.657369 C14.7079067,12.6128089 14.6590136,12.5678077 14.6016781,12.5143715 C14.5763367,12.4907536 14.4863635,12.4065098 14.4666579,12.3881479 C14.369323,12.2974504 14.3119221,12.2465262 14.2659023,12.2110833 C14.2455594,12.1954158 14.2294255,12.1844498 14.2182789,12.1782208 L14.2166926,12.177151 Z" id="Path" fill="#E68C3F"></path>
                        <path d="M16.1169697,10.2445708 C16.4049075,9.98575088 17.3119113,9.28118547 18.506853,10.0001298 C18.7659969,10.1439186 19.0251408,10.3020864 19.39946,10.5177696 C20.162495,10.9635151 19.7881759,11.610565 18.866775,12.0131738 C18.4492653,12.1857204 17.7582147,12.5595715 17.2399269,12.5308137 C16.6640514,12.4732981 16.2753353,12.0994471 15.9010164,11.855006 C15.1955689,11.3948817 15.2387595,11.0066518 15.5698879,10.7046952 C15.814635,10.474633 16.0881759,10.2589497 16.1169697,10.2445708 L16.1169697,10.2445708 Z" id="Path" fill="url(#linearGradient-20)"></path>
                    </g>
                </g>
            </g>
        </g>
    </g>
</svg>