<?xml version="1.0" encoding="UTF-8"?>
<svg width="60px" height="60px" viewBox="0 0 60 60" version="1.1" xmlns="http://www.w3.org/2000/svg" xmlns:xlink="http://www.w3.org/1999/xlink">
    <!-- Generator: Sketch 46.1 (44463) - http://www.bohemiancoding.com/sketch -->
    <title>linux_rounded</title>
    <desc>Created with Sketch.</desc>
    <defs>
        <ellipse id="path-1" cx="30" cy="30" rx="30" ry="30"/>
    </defs>
    <g id="Iland-Cloud" stroke="none" stroke-width="1" fill="none" fill-rule="evenodd">
        <g id="VM-Logo-Library" transform="translate(-43.000000, -283.000000)">
            <g id="linux_rounded" transform="translate(43.000000, 283.000000)">
                <g id="Rectangle-13">
                    <use fill="#FFFFFF" fill-rule="evenodd" xlink:href="#path-1"></use>
                </g>
                <g id="g3617"
                   transform="matrix(0.12861736,0,0,0.12861736,11.222,10)">
                    <path d="M 0.00 0.00 L 292.00 0.00 L 292.00 311.00 L 0.00 311.00 L 0.00 0.00 Z" fill="#ffffff" />
                    <path d="M 158.24 10.63 C 154.00 11.12 150.00 11.10 145.76 10.66 C 149.98 9.67 154.02 9.70 158.24 10.63 Z" fill="#484747" />
                    <path d="M 145.76 10.66 C 150.00 11.10 154.00 11.12 158.24 10.63 C 179.75 13.07 191.37 31.94 194.32 51.76 C 193.76 59.49 193.98 67.28 194.14 75.03 C 193.55 77.06 193.67 78.19 194.68 80.03 C 197.59 101.50 212.66 121.57 226.12 137.86 C 237.38 150.97 240.79 166.09 245.87 182.12 C 248.77 191.18 249.64 203.89 243.93 212.03 C 242.87 212.32 241.76 212.57 240.76 213.00 C 238.59 220.47 233.83 227.09 225.91 228.96 C 219.58 230.78 212.96 231.29 208.81 225.21 C 206.25 221.43 207.12 215.60 206.96 211.21 C 210.02 202.56 222.98 203.19 230.13 204.86 C 232.30 205.01 239.75 210.90 237.72 205.35 C 231.80 203.50 225.43 201.82 219.18 202.03 C 219.97 198.98 220.77 195.98 220.89 192.81 C 223.32 181.20 225.56 168.45 217.65 158.36 C 213.80 152.97 207.05 144.56 200.06 144.07 C 201.99 149.55 210.90 152.38 214.05 157.96 C 222.39 166.98 220.53 179.54 218.52 190.63 C 216.72 195.67 216.32 202.46 210.68 204.69 C 207.62 206.22 206.86 207.74 206.01 210.94 L 205.02 210.92 C 205.05 208.95 205.10 206.98 205.19 205.02 C 206.62 203.05 206.37 201.22 205.82 198.98 C 206.03 195.64 206.03 192.33 205.79 188.99 C 206.37 186.47 206.59 184.36 205.32 182.01 C 204.62 176.29 203.80 170.52 202.35 164.94 L 202.15 164.15 C 201.81 162.83 201.43 161.51 201.03 160.20 C 200.44 158.13 199.68 156.13 198.94 154.11 C 198.00 151.34 196.87 148.70 195.57 146.08 C 194.70 143.66 193.77 141.29 192.43 139.09 C 191.83 138.03 191.20 136.99 190.55 135.97 C 184.40 128.08 185.36 119.59 181.07 111.19 C 180.39 109.80 179.69 108.42 178.99 107.04 C 176.88 102.78 175.17 98.69 172.39 94.84 C 173.25 90.26 173.99 86.24 170.15 82.79 C 172.15 79.46 173.84 76.16 174.37 72.25 C 175.23 68.45 175.42 64.57 174.36 60.79 C 173.32 54.56 166.41 49.28 160.13 49.99 C 154.52 49.70 147.35 55.01 146.70 60.81 C 145.77 64.38 145.98 68.30 145.92 72.01 C 143.29 71.88 140.37 71.09 137.88 71.90 L 136.08 72.33 C 135.65 71.22 135.20 70.10 134.73 69.00 C 135.53 64.09 134.63 61.27 132.05 57.20 C 129.60 52.79 126.03 51.37 121.08 52.03 C 114.91 52.77 113.94 62.17 113.91 66.99 C 113.26 72.57 115.53 76.45 118.10 81.10 C 113.16 87.29 110.55 91.33 116.14 98.43 L 115.24 99.71 C 112.85 102.78 114.06 108.62 114.71 112.23 C 114.87 113.50 115.00 114.77 115.11 116.04 C 112.23 120.97 108.97 125.76 105.80 130.52 C 101.44 136.34 99.70 144.26 97.86 151.19 C 90.34 164.72 85.73 178.53 83.77 193.91 C 82.54 195.29 82.61 196.37 83.11 198.07 C 83.07 199.44 83.03 200.82 82.99 202.20 C 80.02 203.92 79.25 197.17 78.53 195.40 C 75.01 176.98 86.23 165.79 91.96 150.02 C 88.71 152.18 86.86 156.54 84.81 159.80 C 81.26 166.38 77.22 172.28 75.70 179.77 C 74.69 184.96 74.36 192.10 75.78 197.20 C 77.55 200.73 79.79 204.53 82.99 206.95 C 88.36 211.28 92.57 216.74 98.18 220.83 C 106.10 228.04 115.08 231.07 121.36 240.63 C 122.83 243.41 121.80 245.69 120.24 248.10 C 116.63 250.23 113.53 252.38 109.11 252.09 C 108.10 250.68 107.06 249.29 106.03 247.90 C 105.40 246.89 104.75 245.88 104.11 244.88 C 103.52 243.85 102.93 242.82 102.32 241.79 C 94.41 229.66 86.05 215.18 74.16 206.63 C 72.54 205.33 71.48 205.38 69.88 206.65 C 66.72 207.39 64.46 208.87 62.08 210.99 C 61.96 210.08 61.83 209.16 61.70 208.25 C 62.13 203.39 62.09 198.63 61.73 193.77 C 67.08 160.88 85.50 135.40 107.28 111.27 C 110.02 108.30 110.25 106.19 109.81 102.24 C 110.00 99.36 110.05 96.57 109.32 93.76 C 109.11 92.25 108.90 90.75 108.69 89.24 C 109.01 86.34 109.10 83.60 108.30 80.76 C 108.09 78.92 107.90 77.07 107.68 75.23 C 108.05 71.68 108.30 68.25 107.26 64.77 C 106.75 57.23 107.03 49.62 107.08 42.07 C 108.53 40.82 108.38 39.60 107.82 37.92 C 109.44 32.97 110.69 28.25 114.29 24.28 C 122.23 14.28 133.93 12.57 145.76 10.66 Z" fill="#030303" />
                    <path d="M 168.03 22.68 C 163.15 22.60 164.71 29.18 161.61 32.10 C 162.13 29.39 163.17 17.01 168.03 22.68 Z" fill="#4e4e4e" />
                    <path d="M 168.03 22.68 C 169.94 24.49 171.78 25.91 174.23 26.92 C 177.16 33.91 168.23 28.73 165.93 35.26 C 163.39 34.70 162.66 34.62 161.61 32.10 C 164.71 29.18 163.15 22.60 168.03 22.68 Z" fill="#858585" />
                    <path d="M 174.23 26.92 C 175.51 27.44 180.07 29.88 176.99 30.96 C 173.02 32.19 169.52 32.97 165.93 35.26 C 168.23 28.73 177.16 33.91 174.23 26.92 Z" fill="#4e4e4e" />
                    <path d="M 161.61 32.10 C 162.66 34.62 163.39 34.70 165.93 35.26 C 162.88 36.90 160.33 35.77 161.61 32.10 Z" fill="#4d4d4d" />
                    <path d="M 107.82 37.92 C 108.38 39.60 108.53 40.82 107.08 42.07 C 106.60 40.36 106.55 39.28 107.82 37.92 Z" fill="#7f7f7f" />
                    <path d="M 163.20 44.59 C 161.73 44.89 160.26 45.21 158.79 45.56 C 153.83 46.00 151.14 48.74 147.16 51.12 C 148.23 44.59 158.10 43.45 163.20 44.59 Z" fill="#2f2e2e" />
                    <path d="M 163.20 44.59 C 168.27 45.98 175.23 48.58 174.96 54.99 C 170.12 48.84 166.56 46.89 158.79 45.56 C 160.26 45.21 161.73 44.89 163.20 44.59 Z" fill="#6d6c6c" />
                    <path d="M 121.33 48.06 C 127.68 47.07 133.72 49.03 134.95 55.97 C 132.18 55.77 130.99 51.75 128.67 50.33 C 127.22 48.52 121.19 49.72 121.33 48.06 Z" fill="#585757" />
                    <path d="M 160.13 49.99 C 156.35 52.04 151.30 54.56 149.79 58.89 C 148.01 63.38 147.86 68.20 147.98 72.96 C 147.30 72.64 146.61 72.33 145.92 72.01 C 145.98 68.30 145.77 64.38 146.70 60.81 C 147.35 55.01 154.52 49.70 160.13 49.99 Z" fill="#5a5a5a" />
                    <path d="M 160.13 49.99 C 166.41 49.28 173.32 54.56 174.36 60.79 L 174.01 63.04 C 170.42 61.05 166.79 58.40 162.87 57.16 C 158.14 56.22 154.54 58.37 149.79 58.89 C 151.30 54.56 156.35 52.04 160.13 49.99 Z" fill="#c7c7c7" />
                    <path d="M 121.08 52.03 C 119.46 53.93 117.58 55.64 116.83 58.09 C 113.46 66.02 115.21 72.81 119.07 80.10 L 118.10 81.10 C 115.53 76.45 113.26 72.57 113.91 66.99 C 113.94 62.17 114.91 52.77 121.08 52.03 Z" fill="#5b5b5b" />
                    <path d="M 121.08 52.03 C 126.03 51.37 129.60 52.79 132.05 57.20 C 128.42 58.60 125.17 56.23 121.68 57.76 C 119.83 58.44 118.77 58.76 116.83 58.09 C 117.58 55.64 119.46 53.93 121.08 52.03 Z" fill="#cbcbcb" />
                    <path d="M 194.32 51.76 C 195.72 59.30 194.80 67.36 194.86 75.02 L 194.14 75.03 C 193.98 67.28 193.76 59.49 194.32 51.76 Z" fill="#d6d6d6" />
                    <path d="M 132.05 57.20 C 134.63 61.27 135.53 64.09 134.73 69.00 C 133.91 70.40 133.78 71.39 134.08 72.99 C 132.76 73.31 131.44 73.65 130.12 73.97 C 130.26 68.48 129.42 66.07 125.00 62.79 C 123.65 61.41 121.17 61.10 119.98 62.83 C 115.84 67.33 118.48 74.17 121.96 78.23 C 121.00 78.85 120.03 79.47 119.07 80.10 C 115.21 72.81 113.46 66.02 116.83 58.09 C 118.77 58.76 119.83 58.44 121.68 57.76 C 125.17 56.23 128.42 58.60 132.05 57.20 Z" fill="#eaeaea" />
                    <path d="M 162.87 57.16 C 166.79 58.40 170.42 61.05 174.01 63.04 C 173.94 66.12 174.09 69.18 174.37 72.25 C 173.84 76.16 172.15 79.46 170.15 82.79 C 167.62 82.05 165.17 81.32 162.84 80.06 C 166.22 76.00 170.10 71.22 166.87 65.80 C 165.99 64.08 164.54 63.02 162.90 62.08 L 162.19 61.66 C 160.57 60.38 159.49 60.35 157.93 61.74 C 151.70 64.67 153.12 69.28 152.91 75.07 C 151.24 74.43 149.59 73.74 147.98 72.96 C 147.86 68.20 148.01 63.38 149.79 58.89 C 154.54 58.37 158.14 56.22 162.87 57.16 Z" fill="#eaeae9" />
                    <path d="M 162.19 61.66 C 160.80 62.23 159.38 62.26 157.93 61.74 C 159.49 60.35 160.57 60.38 162.19 61.66 Z" fill="#8e8e8e" />
                    <path d="M 174.36 60.79 C 175.42 64.57 175.23 68.45 174.37 72.25 C 174.09 69.18 173.94 66.12 174.01 63.04 L 174.36 60.79 Z" fill="#909090" />
                    <path d="M 125.00 62.79 C 123.23 63.16 121.76 63.20 119.98 62.83 C 121.17 61.10 123.65 61.41 125.00 62.79 Z" fill="#5a5959" />
                    <path d="M 157.93 61.74 C 159.38 62.26 160.80 62.23 162.19 61.66 L 162.90 62.08 C 157.80 65.06 163.08 65.73 163.03 70.03 C 163.50 72.15 163.08 71.96 165.10 71.50 C 165.63 70.08 165.94 68.63 166.28 67.16 L 166.87 65.80 C 170.10 71.22 166.22 76.00 162.84 80.06 C 159.57 78.32 156.31 76.55 152.91 75.07 C 153.12 69.28 151.70 64.67 157.93 61.74 Z" fill="#070606" />
                    <path d="M 162.90 62.08 C 164.54 63.02 165.99 64.08 166.87 65.80 L 166.28 67.16 C 165.09 65.92 163.91 64.71 162.44 63.78 C 163.30 66.36 164.16 68.94 165.10 71.50 C 163.08 71.96 163.50 72.15 163.03 70.03 C 163.08 65.73 157.80 65.06 162.90 62.08 Z" fill="#2b2a2a" />
                    <path d="M 119.98 62.83 C 121.76 63.20 123.23 63.16 125.00 62.79 C 129.42 66.07 130.26 68.48 130.12 73.97 C 127.34 75.28 124.61 76.67 121.96 78.23 C 118.48 74.17 115.84 67.33 119.98 62.83 Z" fill="#0a0a0a" />
                    <path d="M 123.86 64.11 C 125.09 66.53 125.81 69.57 127.83 71.36 C 128.16 75.03 125.08 71.70 124.90 70.04 C 124.88 68.44 119.75 62.87 123.86 64.11 Z" fill="#414040" />
                    <path d="M 123.86 64.11 C 127.26 65.90 128.44 67.31 127.83 71.36 C 125.81 69.57 125.09 66.53 123.86 64.11 Z" fill="#7e7e7e" />
                    <path d="M 162.44 63.78 C 163.91 64.71 165.09 65.92 166.28 67.16 C 165.94 68.63 165.63 70.08 165.10 71.50 C 164.16 68.94 163.30 66.36 162.44 63.78 Z" fill="#797979" />
                    <path d="M 107.26 64.77 C 108.30 68.25 108.05 71.68 107.68 75.23 C 106.77 71.76 106.95 68.31 107.26 64.77 Z" fill="#7a7a7a" />
                    <path d="M 134.73 69.00 C 135.20 70.10 135.65 71.22 136.08 72.33 C 135.42 72.57 134.75 72.79 134.08 72.99 C 133.78 71.39 133.91 70.40 134.73 69.00 Z" fill="#787149" />
                    <path d="M 145.92 72.01 C 146.61 72.33 147.30 72.64 147.98 72.96 C 149.59 73.74 151.24 74.43 152.91 75.07 C 156.31 76.55 159.57 78.32 162.84 80.06 C 165.17 81.32 167.62 82.05 170.15 82.79 C 173.99 86.24 173.25 90.26 172.39 94.84 C 171.10 96.08 169.82 97.31 168.30 98.27 C 160.92 98.58 154.89 104.33 147.40 105.46 C 141.82 106.19 134.42 107.40 130.10 102.96 C 143.82 103.66 154.16 97.29 165.21 90.18 C 165.97 89.53 169.70 85.71 166.49 87.60 C 156.48 93.25 147.64 99.33 135.85 100.78 C 132.06 101.41 129.54 101.07 126.25 99.13 C 124.10 90.49 126.11 82.87 134.17 78.22 C 137.34 77.06 136.92 74.62 137.88 71.90 C 140.37 71.09 143.29 71.88 145.92 72.01 Z" fill="#faca01" />
                    <path d="M 136.08 72.33 L 137.88 71.90 C 136.92 74.62 137.34 77.06 134.17 78.22 C 126.11 82.87 124.10 90.49 126.25 99.13 C 119.71 97.27 117.77 88.22 122.72 83.72 C 126.70 80.26 130.43 76.81 134.08 72.99 C 134.75 72.79 135.42 72.57 136.08 72.33 Z" fill="#dfb100" />
                    <path d="M 134.08 72.99 C 130.43 76.81 126.70 80.26 122.72 83.72 C 117.77 88.22 119.71 97.27 126.25 99.13 C 129.54 101.07 132.06 101.41 135.85 100.78 C 147.64 99.33 156.48 93.25 166.49 87.60 C 169.70 85.71 165.97 89.53 165.21 90.18 C 154.16 97.29 143.82 103.66 130.10 102.96 C 128.52 102.42 124.08 100.74 127.35 103.70 C 136.91 112.55 145.41 107.99 156.33 105.72 C 150.61 114.59 140.40 111.88 131.32 111.65 C 125.46 108.63 121.86 101.96 116.14 98.43 C 110.55 91.33 113.16 87.29 118.10 81.10 L 119.07 80.10 C 120.03 79.47 121.00 78.85 121.96 78.23 C 124.61 76.67 127.34 75.28 130.12 73.97 C 131.44 73.65 132.76 73.31 134.08 72.99 Z" fill="#c99803" />
                    <path d="M 194.14 75.03 L 194.86 75.02 C 195.36 76.76 195.16 78.32 194.68 80.03 C 193.67 78.19 193.55 77.06 194.14 75.03 Z" fill="#706f6f" />
                    <path d="M 150.09 78.06 C 152.35 78.04 156.20 80.33 156.02 82.91 C 153.31 86.73 149.16 90.77 145.20 93.30 C 146.24 89.36 156.19 84.45 153.31 80.72 C 146.04 76.95 145.71 86.41 140.82 88.88 C 143.20 84.63 144.90 79.50 150.09 78.06 Z" fill="#ffde53" />
                    <path d="M 153.31 80.72 C 156.19 84.45 146.24 89.36 145.20 93.30 C 142.74 95.67 139.68 98.08 136.07 97.93 C 135.95 94.37 138.25 91.13 140.82 88.88 C 145.71 86.41 146.04 76.95 153.31 80.72 Z" fill="#f8e89c" />
                    <path d="M 108.30 80.76 C 109.10 83.60 109.01 86.34 108.69 89.24 C 107.91 86.41 108.00 83.66 108.30 80.76 Z" fill="#7c7c7c" />
                    <path d="M 109.32 93.76 C 110.05 96.57 110.00 99.36 109.81 102.24 C 108.81 99.41 109.00 96.69 109.32 93.76 Z" fill="#7f7f7f" />
                    <path d="M 172.39 94.84 C 175.17 98.69 176.88 102.78 178.99 107.04 C 177.01 111.10 171.10 103.00 167.36 105.34 C 159.42 108.87 154.56 116.80 146.32 120.31 C 140.93 122.86 132.42 126.66 127.39 121.61 C 123.79 118.18 123.66 113.49 118.68 111.31 C 114.19 109.96 116.94 103.49 115.24 99.71 L 116.14 98.43 C 121.86 101.96 125.46 108.63 131.32 111.65 C 140.40 111.88 150.61 114.59 156.33 105.72 C 159.99 102.63 164.49 101.11 168.30 98.27 C 169.82 97.31 171.10 96.08 172.39 94.84 Z" fill="#e1e0df" />
                    <path d="M 185.92 95.95 C 187.90 98.82 190.79 99.73 193.60 101.48 C 195.12 103.18 191.92 105.79 190.64 106.68 C 187.31 108.74 185.28 102.59 182.92 100.94 C 181.50 98.04 181.49 93.52 185.92 95.95 Z" fill="#545454" />
                    <path d="M 185.92 95.95 C 188.90 97.24 191.88 98.69 194.60 100.46 C 196.48 104.10 192.78 107.43 189.88 108.99 C 185.58 109.91 184.04 103.93 182.92 100.94 C 185.28 102.59 187.31 108.74 190.64 106.68 C 191.92 105.79 195.12 103.18 193.60 101.48 C 190.79 99.73 187.90 98.82 185.92 95.95 Z" fill="#373636" />
                    <path d="M 168.30 98.27 C 164.49 101.11 159.99 102.63 156.33 105.72 C 145.41 107.99 136.91 112.55 127.35 103.70 C 124.08 100.74 128.52 102.42 130.10 102.96 C 134.42 107.40 141.82 106.19 147.40 105.46 C 154.89 104.33 160.92 98.58 168.30 98.27 Z" fill="#e0b304" />
                    <path d="M 115.24 99.71 C 114.99 103.88 114.98 108.06 114.71 112.23 C 114.06 108.62 112.85 102.78 115.24 99.71 Z" fill="#545454" />
                    <path d="M 115.24 99.71 C 116.94 103.49 114.19 109.96 118.68 111.31 C 123.66 113.49 123.79 118.18 127.39 121.61 C 132.42 126.66 140.93 122.86 146.32 120.31 C 154.56 116.80 159.42 108.87 167.36 105.34 C 171.10 103.00 177.01 111.10 178.99 107.04 C 179.69 108.42 180.39 109.80 181.07 111.19 C 174.37 113.34 171.37 104.36 164.00 110.01 C 155.06 118.81 144.68 125.30 132.03 126.97 C 122.49 125.36 123.98 117.76 116.34 112.41 C 115.93 113.63 115.58 114.85 115.11 116.04 C 115.00 114.77 114.87 113.50 114.71 112.23 C 114.98 108.06 114.99 103.88 115.24 99.71 Z" fill="#f3f3f4" />
                    <path d="M 181.07 111.19 C 185.36 119.59 184.40 128.08 190.55 135.97 C 181.02 138.51 169.44 135.08 159.23 141.24 C 155.71 143.92 161.21 146.28 163.60 146.42 C 175.29 147.14 182.76 153.78 191.78 160.22 C 194.67 161.89 198.65 165.84 202.15 164.15 L 202.35 164.94 C 202.69 170.30 198.18 164.97 195.12 166.07 C 197.56 180.48 200.65 194.14 198.31 208.88 C 200.31 208.91 202.27 208.71 204.26 208.62 C 202.98 209.82 201.43 210.23 199.84 210.86 C 197.64 211.76 192.87 213.11 192.50 215.82 L 192.15 217.46 L 190.92 218.83 C 186.46 219.83 180.02 222.28 180.94 227.99 C 181.99 235.66 182.58 243.74 184.05 251.27 C 183.45 251.91 182.84 252.54 182.23 253.16 C 176.35 248.09 174.95 253.34 170.70 256.69 C 158.41 265.16 145.67 265.76 131.91 268.75 C 143.09 270.45 154.78 264.82 165.36 264.89 C 158.54 267.91 151.44 268.70 144.24 270.32 C 139.35 269.87 134.66 269.88 129.77 270.30 C 125.98 269.44 122.34 268.17 118.73 266.76 C 117.08 265.30 115.74 263.71 114.50 261.90 C 113.57 259.88 112.56 257.91 111.57 255.91 C 115.24 255.31 125.82 253.85 120.24 248.10 C 121.80 245.69 122.83 243.41 121.36 240.63 C 115.08 231.07 106.10 228.04 98.18 220.83 C 92.57 216.74 88.36 211.28 82.99 206.95 C 82.98 205.37 82.99 203.78 82.99 202.20 C 83.03 200.82 83.07 199.44 83.11 198.07 C 84.54 196.78 84.38 195.59 83.77 193.91 C 85.73 178.53 90.34 164.72 97.86 151.19 C 101.65 151.58 104.90 147.39 108.89 146.84 C 111.28 145.83 113.70 145.47 112.89 142.16 C 110.68 138.21 108.12 134.42 105.80 130.52 C 108.97 125.76 112.23 120.97 115.11 116.04 C 115.58 114.85 115.93 113.63 116.34 112.41 C 123.98 117.76 122.49 125.36 132.03 126.97 C 144.68 125.30 155.06 118.81 164.00 110.01 C 171.37 104.36 174.37 113.34 181.07 111.19 Z" fill="#fefefe" />
                    <path d="M 105.80 130.52 C 108.12 134.42 110.68 138.21 112.89 142.16 C 113.70 145.47 111.28 145.83 108.89 146.84 C 104.90 147.39 101.65 151.58 97.86 151.19 C 99.70 144.26 101.44 136.34 105.80 130.52 Z" fill="#d1d1d1" />
                    <path d="M 190.55 135.97 C 191.20 136.99 191.83 138.03 192.43 139.09 C 184.47 139.30 176.24 138.42 168.34 139.38 C 166.68 140.03 162.51 140.48 163.00 142.93 C 163.30 145.73 168.62 144.77 170.63 145.44 C 182.21 146.50 188.03 153.96 197.04 159.97 C 198.41 161.04 199.51 160.53 201.03 160.20 C 201.43 161.51 201.81 162.83 202.15 164.15 C 198.65 165.84 194.67 161.89 191.78 160.22 C 182.76 153.78 175.29 147.14 163.60 146.42 C 161.21 146.28 155.71 143.92 159.23 141.24 C 169.44 135.08 181.02 138.51 190.55 135.97 Z" fill="#f2f2f3" />
                    <path d="M 136.73 138.24 C 138.55 141.64 139.18 142.31 142.89 143.60 C 135.88 146.08 136.36 145.76 132.33 152.04 C 132.07 149.85 132.08 147.56 131.60 145.40 C 130.52 144.31 129.27 143.39 128.14 142.36 C 132.26 142.16 133.78 140.71 136.73 138.24 Z" fill="#e2e2e2" />
                    <path d="M 168.34 139.38 C 176.24 138.42 184.47 139.30 192.43 139.09 C 193.77 141.29 194.70 143.66 195.57 146.08 C 193.47 146.88 193.23 143.25 191.12 142.86 C 184.76 140.65 177.01 139.22 170.33 140.36 C 167.79 140.48 166.72 144.56 169.99 143.91 C 181.18 142.93 187.47 149.26 195.79 155.23 C 197.36 156.64 197.69 154.96 198.94 154.11 C 199.68 156.13 200.44 158.13 201.03 160.20 C 199.51 160.53 198.41 161.04 197.04 159.97 C 188.03 153.96 182.21 146.50 170.63 145.44 C 168.62 144.77 163.30 145.73 163.00 142.93 C 162.51 140.48 166.68 140.03 168.34 139.38 Z" fill="#e0e0e0" />
                    <path d="M 170.33 140.36 C 177.01 139.22 184.76 140.65 191.12 142.86 C 193.23 143.25 193.47 146.88 195.57 146.08 C 196.87 148.70 198.00 151.34 198.94 154.11 C 197.69 154.96 197.36 156.64 195.79 155.23 C 187.47 149.26 181.18 142.93 169.99 143.91 C 166.72 144.56 167.79 140.48 170.33 140.36 Z" fill="#cccccc" />
                    <path d="M 200.06 144.07 C 207.05 144.56 213.80 152.97 217.65 158.36 C 225.56 168.45 223.32 181.20 220.89 192.81 C 220.28 194.04 215.82 204.46 219.18 202.03 C 225.43 201.82 231.80 203.50 237.72 205.35 C 239.75 210.90 232.30 205.01 230.13 204.86 C 222.98 203.19 210.02 202.56 206.96 211.21 L 206.01 210.94 C 206.86 207.74 207.62 206.22 210.68 204.69 C 216.32 202.46 216.72 195.67 218.52 190.63 C 220.53 179.54 222.39 166.98 214.05 157.96 C 210.90 152.38 201.99 149.55 200.06 144.07 Z" fill="#6a6969" />
                    <path d="M 91.96 150.02 C 86.23 165.79 75.01 176.98 78.53 195.40 C 79.25 197.17 80.02 203.92 82.99 202.20 C 82.99 203.78 82.98 205.37 82.99 206.95 C 79.79 204.53 77.55 200.73 75.78 197.20 C 76.09 191.38 76.16 185.58 75.70 179.77 C 77.22 172.28 81.26 166.38 84.81 159.80 C 86.86 156.54 88.71 152.18 91.96 150.02 Z" fill="#717070" />
                    <path d="M 202.35 164.94 C 203.80 170.52 204.62 176.29 205.32 182.01 C 204.62 184.55 204.28 186.66 205.79 188.99 C 206.03 192.33 206.03 195.64 205.82 198.98 C 204.37 200.94 204.63 202.79 205.19 205.02 C 205.10 206.98 205.05 208.95 205.02 210.92 C 203.29 210.91 201.57 210.87 199.84 210.86 C 201.43 210.23 202.98 209.82 204.26 208.62 C 202.27 208.71 200.31 208.91 198.31 208.88 C 200.65 194.14 197.56 180.48 195.12 166.07 C 198.18 164.97 202.69 170.30 202.35 164.94 Z" fill="#f2f2f3" />
                    <path d="M 129.83 168.92 C 129.56 180.09 126.14 190.71 126.99 202.00 C 126.53 207.29 128.35 214.42 125.41 219.02 C 123.53 211.57 123.60 204.54 124.87 197.01 C 124.94 187.92 125.60 177.11 129.83 168.92 Z" fill="#e2e2e2" />
                    <path d="M 75.70 179.77 C 76.16 185.58 76.09 191.38 75.78 197.20 C 74.36 192.10 74.69 184.96 75.70 179.77 Z" fill="#434242" />
                    <path d="M 205.32 182.01 C 206.59 184.36 206.37 186.47 205.79 188.99 C 204.28 186.66 204.62 184.55 205.32 182.01 Z" fill="#979797" />
                    <path d="M 220.89 192.81 C 220.77 195.98 219.97 198.98 219.18 202.03 C 215.82 204.46 220.28 194.04 220.89 192.81 Z" fill="#353434" />
                    <path d="M 61.73 193.77 C 62.09 198.63 62.13 203.39 61.70 208.25 C 60.67 203.55 60.52 198.45 61.73 193.77 Z" fill="#646464" />
                    <path d="M 83.77 193.91 C 84.38 195.59 84.54 196.78 83.11 198.07 C 82.61 196.37 82.54 195.29 83.77 193.91 Z" fill="#9b9a9a" />
                    <path d="M 205.82 198.98 C 206.37 201.22 206.62 203.05 205.19 205.02 C 204.63 202.79 204.37 200.94 205.82 198.98 Z" fill="#a6a6a6" />
                    <path d="M 74.16 206.63 C 72.74 207.23 71.31 207.24 69.88 206.65 C 71.48 205.38 72.54 205.33 74.16 206.63 Z" fill="#7f6d0a" />
                    <path d="M 69.88 206.65 C 71.31 207.24 72.74 207.23 74.16 206.63 C 86.05 215.18 94.41 229.66 102.32 241.79 C 98.32 242.43 100.47 247.47 100.63 250.19 C 101.90 257.02 105.36 268.10 101.24 274.24 C 98.50 278.03 89.74 280.93 85.35 279.62 C 72.25 275.00 58.99 271.19 46.10 265.89 C 39.60 263.12 35.22 257.75 34.44 250.63 C 33.57 246.05 32.23 239.68 28.27 236.74 C 30.22 231.18 35.06 228.02 40.76 227.23 C 45.67 228.06 50.91 228.65 55.88 228.94 C 63.35 226.03 60.79 218.42 62.00 211.85 L 62.08 210.99 C 64.46 208.87 66.72 207.39 69.88 206.65 Z" fill="#fecd00" />
                    <path d="M 199.84 210.86 C 201.57 210.87 203.29 210.91 205.02 210.92 L 206.01 210.94 L 205.74 211.75 C 198.06 215.14 201.96 224.42 203.75 230.32 C 207.31 239.97 218.80 242.07 227.63 239.55 C 237.81 236.25 244.15 224.00 248.35 214.89 C 249.19 215.73 249.89 216.64 250.27 217.77 C 250.15 222.06 249.30 227.10 250.74 231.21 C 254.41 240.43 261.75 243.41 269.15 248.87 C 273.17 253.52 270.58 258.92 266.18 262.12 C 251.33 268.61 234.48 279.39 218.01 280.01 C 210.77 280.01 199.15 281.46 196.56 272.41 C 194.21 254.73 199.06 232.53 192.50 215.82 C 192.87 213.11 197.64 211.76 199.84 210.86 Z" fill="#fecd00" />
                    <path d="M 206.01 210.94 L 206.96 211.21 C 207.12 215.60 206.25 221.43 208.81 225.21 C 212.96 231.29 219.58 230.78 225.91 228.96 C 233.83 227.09 238.59 220.47 240.76 213.00 C 240.81 217.11 241.43 214.84 243.94 214.12 C 244.74 218.81 240.54 221.71 238.11 225.14 C 235.00 228.41 231.80 232.68 227.68 234.65 C 221.20 235.62 213.43 235.60 208.68 230.32 C 203.52 224.99 202.33 218.39 205.74 211.75 L 206.01 210.94 Z" fill="#d4a701" />
                    <path d="M 62.00 211.85 C 60.79 218.42 63.35 226.03 55.88 228.94 C 50.91 228.65 45.67 228.06 40.76 227.23 C 44.68 225.92 49.62 225.65 52.28 222.29 C 55.40 218.61 58.10 214.80 62.00 211.85 Z" fill="#e2b503" />
                    <path d="M 205.74 211.75 C 202.33 218.39 203.52 224.99 208.68 230.32 C 213.43 235.60 221.20 235.62 227.68 234.65 C 231.80 232.68 235.00 228.41 238.11 225.14 C 240.54 221.71 244.74 218.81 243.94 214.12 C 241.43 214.84 240.81 217.11 240.76 213.00 C 241.76 212.57 242.87 212.32 243.93 212.03 C 245.49 212.91 247.05 213.64 248.35 214.89 C 244.15 224.00 237.81 236.25 227.63 239.55 C 218.80 242.07 207.31 239.97 203.75 230.32 C 201.96 224.42 198.06 215.14 205.74 211.75 Z" fill="#ecbf01" />
                    <path d="M 192.50 215.82 C 199.06 232.53 194.21 254.73 196.56 272.41 C 199.15 281.46 210.77 280.01 218.01 280.01 C 234.48 279.39 251.33 268.61 266.18 262.12 C 257.35 269.95 245.29 273.76 236.18 281.58 C 223.13 284.55 211.86 288.31 198.08 284.93 C 191.34 282.06 193.08 273.04 192.01 267.01 C 193.13 250.18 195.53 234.26 192.15 217.46 L 192.50 215.82 Z" fill="#e0b201" />
                    <path d="M 192.15 217.46 C 195.53 234.26 193.13 250.18 192.01 267.01 C 193.08 273.04 191.34 282.06 198.08 284.93 C 211.86 288.31 223.13 284.55 236.18 281.58 C 233.97 283.64 231.90 285.74 229.24 287.24 C 218.75 289.41 203.31 293.93 193.43 288.56 C 185.70 278.16 193.24 258.46 189.98 247.54 C 189.79 247.00 189.60 246.47 189.40 245.94 C 191.35 237.25 191.17 228.67 190.89 219.83 L 190.92 218.83 L 192.15 217.46 Z" fill="#ca9704" />
                    <path d="M 250.27 217.77 C 251.73 221.87 250.83 226.93 250.74 231.21 C 249.30 227.10 250.15 222.06 250.27 217.77 Z" fill="#f8e485" />
                    <path d="M 190.92 218.83 L 190.89 219.83 C 184.26 222.36 181.98 225.94 184.09 232.95 C 185.95 238.68 183.43 243.79 187.12 248.23 C 186.12 249.27 185.08 250.27 184.05 251.27 C 182.58 243.74 181.99 235.66 180.94 227.99 C 180.02 222.28 186.46 219.83 190.92 218.83 Z" fill="#e1e1e1" />
                    <path d="M 190.89 219.83 C 191.17 228.67 191.35 237.25 189.40 245.94 C 188.65 246.71 187.89 247.47 187.12 248.23 C 183.43 243.79 185.95 238.68 184.09 232.95 C 181.98 225.94 184.26 222.36 190.89 219.83 Z" fill="#cdcdcd" />
                    <path d="M 28.27 236.74 C 32.23 239.68 33.57 246.05 34.44 250.63 C 35.22 257.75 39.60 263.12 46.10 265.89 C 58.99 271.19 72.25 275.00 85.35 279.62 C 89.74 280.93 98.50 278.03 101.24 274.24 C 105.36 268.10 101.90 257.02 100.63 250.19 C 100.47 247.47 98.32 242.43 102.32 241.79 C 102.93 242.82 103.52 243.85 104.11 244.88 C 100.89 253.97 108.45 264.93 105.37 274.38 C 102.43 281.31 91.88 284.89 84.99 283.06 C 70.31 277.79 55.06 274.22 40.64 268.39 C 30.23 264.92 32.69 249.85 28.77 241.28 C 28.07 237.76 27.92 243.42 27.55 244.21 C 26.85 241.21 27.04 239.57 28.27 236.74 Z" fill="#f3c401" />
                    <path d="M 28.77 241.28 C 32.69 249.85 30.23 264.92 40.64 268.39 C 55.06 274.22 70.31 277.79 84.99 283.06 C 91.88 284.89 102.43 281.31 105.37 274.38 C 108.45 264.93 100.89 253.97 104.11 244.88 C 104.75 245.88 105.40 246.89 106.03 247.90 C 104.45 256.53 109.92 266.14 108.86 274.88 C 106.25 284.50 93.33 289.06 84.38 286.51 C 68.29 280.16 50.29 277.50 34.41 270.53 C 31.31 268.89 30.29 263.75 29.07 260.72 C 29.28 255.05 28.65 249.75 27.55 244.21 C 27.92 243.42 28.07 237.76 28.77 241.28 Z" fill="#e5b902" />
                    <path d="M 189.40 245.94 C 189.60 246.47 189.79 247.00 189.98 247.54 C 186.85 259.68 185.00 271.69 184.36 284.17 C 182.59 284.05 180.81 283.93 179.04 283.81 C 177.43 282.43 175.89 282.63 173.97 283.16 L 172.27 282.75 C 168.16 281.53 163.92 281.72 159.78 282.69 C 157.85 282.91 155.92 283.09 153.99 283.29 C 151.45 282.61 149.37 282.34 147.01 283.72 C 144.75 283.92 142.49 284.08 140.23 284.30 C 136.69 283.94 133.25 283.75 129.77 284.69 C 128.21 284.87 126.65 285.02 125.09 285.17 C 123.39 284.61 122.33 284.55 120.88 285.69 L 120.13 286.04 C 122.83 278.68 118.03 273.45 118.73 266.76 C 122.34 268.17 125.98 269.44 129.77 270.30 C 134.41 271.44 139.58 271.35 144.24 270.32 C 151.44 268.70 158.54 267.91 165.36 264.89 C 171.51 262.52 177.53 257.74 182.23 253.16 C 182.84 252.54 183.45 251.91 184.05 251.27 C 185.08 250.27 186.12 249.27 187.12 248.23 C 187.89 247.47 188.65 246.71 189.40 245.94 Z" fill="#030303" />
                    <path d="M 106.03 247.90 C 107.06 249.29 108.10 250.68 109.11 252.09 C 109.36 252.61 109.61 253.13 109.86 253.65 C 107.48 261.08 114.95 272.10 111.00 280.02 C 106.50 286.86 96.33 292.43 88.16 291.78 C 72.52 285.65 56.38 282.43 40.36 277.68 C 33.62 275.23 27.77 275.86 27.34 266.94 C 27.70 264.84 28.41 262.74 29.07 260.72 C 30.29 263.75 31.31 268.89 34.41 270.53 C 50.29 277.50 68.29 280.16 84.38 286.51 C 93.33 289.06 106.25 284.50 108.86 274.88 C 109.92 266.14 104.45 256.53 106.03 247.90 Z" fill="#dbab01" />
                    <path d="M 120.24 248.10 C 125.82 253.85 115.24 255.31 111.57 255.91 C 111.00 255.16 110.43 254.40 109.86 253.65 C 109.61 253.13 109.36 252.61 109.11 252.09 C 113.53 252.38 116.63 250.23 120.24 248.10 Z" fill="#dcdcdc" />
                    <path d="M 189.98 247.54 C 193.24 258.46 185.70 278.16 193.43 288.56 C 203.31 293.93 218.75 289.41 229.24 287.24 C 223.09 294.33 214.84 296.50 206.01 298.28 C 203.37 297.60 201.58 297.58 198.96 298.41 C 190.39 296.59 188.05 291.17 184.36 284.17 C 185.00 271.69 186.85 259.68 189.98 247.54 Z" fill="#b88803" />
                    <path d="M 182.23 253.16 C 177.53 257.74 171.51 262.52 165.36 264.89 C 154.78 264.82 143.09 270.45 131.91 268.75 C 145.67 265.76 158.41 265.16 170.70 256.69 C 174.95 253.34 176.35 248.09 182.23 253.16 Z" fill="#f0f0f1" />
                    <path d="M 109.86 253.65 C 110.43 254.40 111.00 255.16 111.57 255.91 C 112.56 257.91 113.57 259.88 114.50 261.90 C 113.73 269.86 119.99 278.81 113.95 285.90 C 108.98 292.49 101.76 295.98 93.65 296.91 C 89.45 295.77 85.35 294.33 81.31 292.72 C 65.43 286.33 47.88 287.56 33.18 279.81 C 27.73 276.65 26.07 273.28 27.34 266.94 C 27.77 275.86 33.62 275.23 40.36 277.68 C 56.38 282.43 72.52 285.65 88.16 291.78 C 96.33 292.43 106.50 286.86 111.00 280.02 C 114.95 272.10 107.48 261.08 109.86 253.65 Z" fill="#cc9904" />
                    <path d="M 114.50 261.90 C 115.74 263.71 117.08 265.30 118.73 266.76 C 118.03 273.45 122.83 278.68 120.13 286.04 C 114.71 294.44 103.75 301.11 93.65 296.91 C 101.76 295.98 108.98 292.49 113.95 285.90 C 119.99 278.81 113.73 269.86 114.50 261.90 Z" fill="#b78906" />
                    <path d="M 129.77 270.30 C 134.66 269.88 139.35 269.87 144.24 270.32 C 139.58 271.35 134.41 271.44 129.77 270.30 Z" fill="#5f5f5f" />
                    <path d="M 172.27 282.75 C 168.08 283.05 163.96 283.09 159.78 282.69 C 163.92 281.72 168.16 281.53 172.27 282.75 Z" fill="#303030" />
                    <path d="M 153.99 283.29 C 151.63 284.64 149.55 284.39 147.01 283.72 C 149.37 282.34 151.45 282.61 153.99 283.29 Z" fill="#606060" />
                    <path d="M 173.97 283.16 C 175.89 282.63 177.43 282.43 179.04 283.81 C 177.11 284.38 175.58 284.59 173.97 283.16 Z" fill="#a1a1a1" />
                    <path d="M 140.23 284.30 C 136.75 285.26 133.31 285.06 129.77 284.69 C 133.25 283.75 136.69 283.94 140.23 284.30 Z" fill="#787878" />
                    <path d="M 125.09 285.17 C 123.72 286.54 122.56 286.40 120.88 285.69 C 122.33 284.55 123.39 284.61 125.09 285.17 Z" fill="#7f7f7f" />
                    <path d="M 198.96 298.41 C 201.58 297.58 203.37 297.60 206.01 298.28 C 203.35 299.70 201.68 299.59 198.96 298.41 Z" fill="#f5e699" />
                </g>
            </g>
        </g>
    </g>
</svg>