<?xml version="1.0" encoding="UTF-8"?>
<svg width="60px" height="60px" viewBox="0 0 60 60" version="1.1" xmlns="http://www.w3.org/2000/svg" xmlns:xlink="http://www.w3.org/1999/xlink">
    <!-- Generator: Sketch 46.1 (44463) - http://www.bohemiancoding.com/sketch -->
    <title>redhat_rounded</title>
    <desc>Created with Sketch.</desc>
    <defs>
        <ellipse id="path-1" cx="30" cy="30" rx="30" ry="30"/>
    </defs>
    <g id="Iland-Cloud" stroke="none" stroke-width="1" fill="none" fill-rule="evenodd">
        <g id="VM-Logo-Library" transform="translate(-43.000000, -203.000000)">
            <g id="redhat_rounded" transform="translate(43.000000, 203.000000)">
                <mask id="mask-2" fill="white">
                    <use xlink:href="#path-1"></use>
                </mask>
                <g id="Rectangle-13">
                    <use fill="#FFFFFF" fill-rule="evenodd" xlink:href="#path-1"></use>
                </g>
                <g id="Group-16" mask="url(#mask-2)">
                    <g transform="translate(11.000000, 11.000000)">
                        <path d="M23.7254866,33.5655982 C23.7254866,33.4941757 24.8960954,31.7327346 26.2485589,29.7702175 C26.7313955,29.0693724 26.9007791,28.6681626 26.9488022,28.1116701 C26.9836096,27.7081989 27.1552269,26.8867459 27.3303808,26.2859676 C27.5057209,25.6853779 27.614052,25.1590373 27.5717991,25.1162592 C27.5297324,25.0729157 27.2075311,25.1405693 26.8570372,25.2657 C26.0899711,25.5397061 25.5825646,25.55139 24.7121931,25.3158276 C24.1580665,25.1656331 23.9516417,25.1788246 23.3867192,25.3968611 C22.7585105,25.639773 22.6792166,25.6405268 22.0932608,25.402703 C21.5071188,25.1648793 21.3784989,25.1656331 19.9787568,25.4151407 C17.3620582,25.8804235 16.5164427,25.6197973 14.770674,23.8082286 C13.6886659,22.6871402 13.2851233,22.4412131 13.0786985,22.7798576 C13.0278834,22.862964 12.830021,22.9308059 12.6388594,22.9308059 C12.383667,22.9308059 12.161793,22.7284107 11.8112991,22.174745 C11.5481029,21.7595899 11.1445603,21.2841308 10.9148686,21.1184834 C9.65919568,20.2129817 8.23916481,20.8695411 8.23916481,22.3558453 C8.23916481,22.9675536 9.44904824,24.814551 10.0597602,25.1339735 C10.8661009,25.5564781 10.4117432,26.188916 9.39879154,26.0511591 C8.87463281,25.9797366 8.64270747,25.8208733 7.93892758,25.0516209 C7.18638008,24.2279065 7.04454452,24.1372621 6.51666307,24.1402773 C6.19464794,24.1417849 5.65578447,24.2697423 5.31980915,24.4244597 C4.45539397,24.8219005 3.32610739,25.0412562 2.14619184,25.0412562 L1.13044816,25.0412562 L0.898522817,24.1740098 C0.369896825,22.2033894 0.277573413,21.4333831 0.27813182,19.0108599 C0.27813182,17.1572668 0.348677331,16.1965493 0.553054563,15.2418622 C1.66037711,10.0815391 4.47866096,5.90925865 8.75476128,3.10003624 C10.8523269,1.72209069 12.7784613,0.913075338 15.2375029,0.377877669 C16.994812,-0.00486404429 20.9284222,-0.0152287879 22.6371499,0.357336632 C28.4559447,1.62711195 33.2744451,5.3424014 35.7835572,10.4931136 C37.1883249,13.3771506 37.7227211,15.7241055 37.7227211,19.0108599 C37.7227211,22.2233651 37.1950258,24.5987758 35.8635956,27.3776578 C34.8973641,29.3953907 35.0311958,29.2917433 33.6234499,29.1121505 C32.3495357,28.9500836 30.6802688,29.0870867 29.6084983,29.4425032 C29.1299428,29.6015549 28.9998338,29.725178 28.9387813,30.0830443 C28.874006,30.4622055 28.734404,30.5762177 27.9718052,30.8750992 C27.3298224,31.1268683 26.8099448,31.4934033 26.1104461,32.186145 C25.5767944,32.7155008 25.0059156,33.2145161 24.8423021,33.2955495 C24.4577453,33.4847532 23.7254866,33.6620845 23.7254866,33.5655982 Z M27.29911,23.7662043 C30.6169826,23.2547513 32.9131553,21.883213 33.872872,19.8396625 C34.6944759,18.0899053 34.3367227,16.4814856 32.8766726,15.3596434 C32.1758709,14.821619 30.3850573,14.0354061 29.8592233,14.0354061 C29.7145957,14.0354061 29.46294,14.3092238 29.2702893,14.6765126 C28.9773114,15.2337589 28.1557075,15.9956618 27.8467219,15.9956618 C27.7899504,15.9956618 27.9448155,15.61292 28.1912594,15.1453759 C28.4552001,14.6433454 28.6392886,14.0678195 28.6392886,13.7416127 C28.6392886,12.2818799 27.085426,8.01311315 25.8355233,6.04173892 C25.2575713,5.12888768 24.969619,4.83151376 24.3216799,4.47590883 C23.2013279,3.86043152 21.8626384,3.78392086 20.1163113,4.23525833 C19.0678077,4.50530702 18.5814345,4.55241949 17.5859797,4.47967783 C13.5324979,4.18286927 13.6946223,4.18079632 13.0249053,4.5275441 C12.1705414,4.96832838 11.901575,5.48449261 11.372949,7.69953254 C10.8000227,10.096992 10.7869932,10.8376 11.3061262,11.4624998 C11.8353106,12.1000258 13.5390126,12.8892539 15.2375029,13.2844333 C17.2704793,13.7578194 18.6562612,14.1752359 19.0415625,14.4313393 C19.2262093,14.5536433 19.4568317,14.8708044 19.5549253,15.1359534 C19.9809905,16.2907743 20.2106822,16.7568108 20.4703418,16.9946346 C20.6222287,17.1344644 20.747312,17.3317714 20.747312,17.4333459 C20.747312,18.5265437 13.0584097,16.1023244 11.0762484,14.3842268 C10.2176034,13.640792 9.97115947,13.0959834 10.0780015,12.1825668 L10.1645547,11.4381898 L8.19691195,11.5037703 C6.53415985,11.5589862 6.11889063,11.6223053 5.5206498,11.9145911 C3.46515092,12.9186521 3.5625,14.5954791 5.80190117,16.7494613 C9.07528733,19.8971397 15.7834395,22.966046 21.1100909,23.7537666 C22.9416683,24.024569 25.5875903,24.0298456 27.29911,23.7662043 Z M13.3884287,9.20185501 C12.8510543,8.64611631 12.65617,8.3295205 12.65617,8.00708275 C12.65617,7.25403702 13.1892633,6.86319196 13.6261243,7.29530754 C14.2835563,7.94527119 14.5139926,8.0057636 15.9863276,7.90776966 C17.523438,7.80544138 18.4148429,7.97994597 18.5799454,8.4148883 C18.7295987,8.80950235 18.4664025,8.93180633 17.1511662,9.07898569 C15.7341135,9.23652979 15.0426186,9.43232922 14.784448,9.74666362 C14.4812326,10.1169676 14.1497246,9.98731413 13.3884287,9.20185501 Z M21.7522598,6.82795183 C21.0715608,6.77047462 21.0322861,6.58786668 21.6627284,6.40525874 C22.2393775,6.23753834 22.5600897,5.79882702 22.2488704,5.60227379 C21.9179208,5.39309442 20.7785828,5.26061415 20.2747129,5.37255338 C19.9729866,5.43945309 19.8493924,5.42117345 19.911934,5.31809136 C20.0697773,5.06048037 21.6474653,4.79834659 22.544082,4.88013383 C23.4782981,4.96625543 24.2353129,5.29962328 24.3834771,5.69122213 C24.6336437,6.35079672 23.239858,6.95232875 21.7522598,6.82795183 Z M21.2279149,28.9604484 C20.9596931,28.7948009 20.5721581,28.6593055 20.3670363,28.6593055 C19.9309199,28.6593055 19.7403167,28.3008738 20.0042574,27.9791898 C20.2354382,27.6972688 21.0032489,27.6980226 21.4918557,27.9806974 C22.0139669,28.2831595 22.4430102,28.2573419 22.757766,27.9055059 C23.1205449,27.4999618 23.2783881,27.5265332 23.2783881,27.9923813 C23.2783881,28.4819741 22.5293772,29.2629105 22.06199,29.2621567 C21.8713868,29.2615913 21.4955784,29.1260958 21.2279149,28.9604484 Z" id="Fill-2" fill="#000000"></path>
                        <path d="M22.192099,3.94598776 C21.5681714,3.94071117 20.8803992,4.03644371 20.1163113,4.23375073 C19.0678077,4.50455322 18.5799454,4.55166569 17.5852351,4.47892403 C13.5310088,4.18155012 13.6946223,4.18004252 13.0249053,4.5260365 C12.1705414,4.96700923 11.9023196,5.48581176 11.372949,7.70085169 C10.8000227,10.0992534 10.7882961,10.8360924 11.3074292,11.4604269 C11.8375443,12.0977644 13.5410601,12.8885001 15.2395503,13.2836795 C17.2717822,13.7570656 18.6555166,14.1729745 19.0415625,14.4285125 C19.2254648,14.5513819 19.4553426,14.8700506 19.5534363,15.1351996 C19.9795014,16.2902089 20.2106822,16.7583184 20.4703418,16.9961422 C20.6222287,17.135972 20.7495456,17.3325252 20.7495456,17.4348535 C20.7495456,18.5272975 13.0569206,16.103832 11.0747593,14.3864882 C10.2161143,13.6422996 9.97190402,13.0952296 10.078746,12.181813 L10.1630656,11.4368706 L8.19411992,11.5030165 C6.53192622,11.5582324 6.11684313,11.6207977 5.51841617,11.9130835 C3.46291729,12.9163907 3.56324454,14.5977405 5.80264571,16.7517227 C9.07528733,19.8994011 15.7849286,22.9645384 21.1123245,23.752259 C22.9431574,24.0232499 25.5898239,24.0305994 27.3013436,23.7662043 C30.6182856,23.2553166 32.9124107,21.8847206 33.8721275,19.8419239 C34.6937314,18.0921667 34.3367227,16.4829932 32.8759281,15.3619048 C32.1751264,14.8229381 30.3863602,14.037479 29.8607124,14.037479 C29.7160848,14.037479 29.46294,14.3107314 29.2695448,14.678774 C28.9765668,15.2360203 28.1542184,15.9979232 27.8459773,15.9979232 C27.7884613,15.9979232 27.9433264,15.61292 28.1899565,15.1446221 C28.4544556,14.6433454 28.6413361,14.0670657 28.6413361,13.7408589 C28.6413361,12.2811261 27.0846814,8.0144323 25.8355233,6.04249272 C25.2568268,5.13039528 24.9711081,4.82925237 24.323169,4.47364744 C23.6927267,4.12765345 22.9941586,3.95333731 22.192099,3.94598776 Z M22.1775804,4.86468094 C22.3069448,4.86543474 22.4335172,4.86901529 22.5453849,4.87938003 C23.4797872,4.96474783 24.2353129,5.29811568 24.3834771,5.68914918 C24.6336437,6.34872378 23.2420916,6.9544017 21.7543073,6.82927098 C21.0730499,6.77273601 21.0317277,6.58862048 21.6612393,6.40525874 C22.2378884,6.23829214 22.5586006,5.80089997 22.2473813,5.60434674 C21.9164317,5.39535582 20.7785828,5.26136795 20.2747129,5.37406098 C19.9729866,5.44096069 19.8486478,5.42041965 19.911934,5.31733756 C20.0493023,5.09213995 21.2729598,4.86392714 22.1775804,4.86468094 Z M13.2060155,7.1172224 C13.3418947,7.10535006 13.4880114,7.16056587 13.6248213,7.29606134 C14.2828118,7.94602499 14.5117589,8.0057636 15.984094,7.90852346 C17.5212044,7.80619517 18.416332,7.97768457 18.58069,8.41281535 C18.7303433,8.80724096 18.4678916,8.93029873 17.1519107,9.07672429 C15.734858,9.23502219 15.041874,9.43082162 14.7837035,9.74590983 C14.4804881,10.1162138 14.14898,9.98957552 13.3876842,9.20411641 C12.8497514,8.6483777 12.6569146,8.3295205 12.6569146,8.00708275 C12.6569146,7.48959937 12.9070812,7.14228624 13.2060155,7.1172224 Z" id="Fill-4" fill="#CA0000"></path>
                    </g>
                </g>
            </g>
        </g>
    </g>
</svg>