<?xml version="1.0" encoding="UTF-8"?>
<svg width="60px" height="60px" viewBox="0 0 60 60" version="1.1" xmlns="http://www.w3.org/2000/svg" xmlns:xlink="http://www.w3.org/1999/xlink">
    <!-- Generator: sketchtool 53.1 (72631) - https://sketchapp.com -->
    <title>D809010F-5E30-43D8-AAC2-7711CACF052F</title>
    <desc>Created with sketchtool.</desc>
    <g id="Secure-Cloud-V9" stroke="none" stroke-width="1" fill="none" fill-rule="evenodd">
        <g id="VM-Logo-Library" transform="translate(-49.000000, -203.000000)">
            <g id="redhat_square" transform="translate(49.000000, 203.000000)">
                <path d="M0,6.0000383 C0,2.68630865 2.69463714,0 6.0000383,0 L60,0 L60,60 L6.0000383,60 C2.68630865,60 0,57.3053629 0,53.9999617 L0,6.0000383 Z" id="Rectangle-14" fill="#AE2129"></path>
                <g id="redhat-seeklogo.com" transform="translate(9.000000, 11.000000)" fill-rule="nonzero">
                    <path d="M38.6306484,32.5866493 C37.821,32.3994531 36.9622969,32.2828472 36.0934219,32.2828472 C34.6084922,32.2828472 33.2574375,32.5411285 32.2599375,32.9577431 C32.1498516,33.0128299 32.0719219,33.1282813 32.0719219,33.259401 C32.0719219,33.3067361 32.0840625,33.3560503 32.1024375,33.3961285 C32.2200703,33.7400087 32.0261484,34.1127517 31.0617891,34.3261719 C29.6314922,34.641684 28.7284922,36.1250694 28.2112031,36.6183767 C27.6045,37.197283 25.8913594,37.5533681 26.1489375,37.2083333 C26.3505703,36.938342 27.1219922,36.0960417 27.5912109,35.185625 C28.0107187,34.3721875 28.3842891,34.1411198 28.8987891,33.3649566 C29.0502188,33.1371875 29.6354297,32.3377691 29.8055625,31.7049306 C29.9968594,31.0872656 29.9322187,30.3127517 30.0057187,29.993941 C30.1107188,29.5339497 30.5428594,28.5349653 30.5755078,27.9717274 C30.5942109,27.6522569 29.2513594,28.4261111 28.6141406,28.4261111 C27.9769219,28.4261111 27.3557812,28.0433073 26.7866484,28.0149392 C26.082,27.9816233 25.6293516,28.5611892 24.9916406,28.4599219 C24.6274219,28.4021962 24.3212812,28.0799219 23.6847188,28.0555122 C22.7789297,28.0221962 21.672,28.5611892 19.5934922,28.4943924 C17.5482891,28.4277604 15.6594375,25.8967361 15.4012031,25.4944705 C15.0994922,25.0216146 14.7303516,25.0216146 14.3280703,25.3922135 C13.9257891,25.7628125 13.4299922,25.4722049 13.2885703,25.2238194 C13.0204922,24.7516233 12.3032109,23.3721441 11.1925078,23.0833507 C9.65671875,22.6833941 8.87857031,23.9383507 8.97963281,24.9371701 C9.08200781,25.9511632 9.73399219,26.2350087 10.0363594,26.7738368 C10.3375781,27.3133247 10.4922891,27.661658 11.0597813,27.9004774 C11.4627187,28.0683767 11.6125078,28.3184115 11.4925781,28.6505816 C11.3875781,28.9400347 10.9685625,29.0061719 10.6934297,29.0193663 C10.1082188,29.0472396 9.6980625,28.8877517 9.39864844,28.6956076 C9.051,28.4732813 8.76799219,28.1633767 8.46414844,27.6372483 C8.1125625,27.0571875 7.55950781,26.8045139 6.91457813,26.8045139 C6.60728906,26.8045139 6.31985156,26.8861545 6.06457031,27.0182639 C5.0544375,27.5460417 3.85136719,27.8594097 2.55642188,27.8594097 L1.09642969,27.8600694 C0.38521875,25.7410417 0,23.4715972 0,21.1116059 C0,9.45167535 9.40242187,0 21.0004922,0 C32.5985625,0 42,9.45167535 42,21.1116059 C42,25.3422396 40.7621484,29.2827604 38.6306484,32.5866493" id="Path" fill="#FFFFFF"></path>
                    <path d="M25.6255781,30.6505295 C25.7332031,30.7565799 25.9195781,31.1128299 25.6918594,31.5650694 C25.5642187,31.8043837 25.4270625,31.9732726 25.1812969,32.1705295 C24.8861484,32.4083594 24.3086484,32.6832986 23.5167187,32.1782813 C23.0906484,31.9066406 23.0652187,31.815599 22.4772187,31.8922917 C22.0572187,31.9472135 21.8902031,31.521033 22.0411406,31.1665972 C22.1920781,30.813316 22.8125625,30.5271615 23.5841484,30.9817101 C23.9306484,31.1867188 24.4722187,31.6188368 24.9458672,31.236033 C25.1419219,31.0776997 25.2597187,30.9721441 25.5320625,30.6554774 C25.5443672,30.642283 25.5614297,30.6345313 25.5807891,30.6345313 C25.5978516,30.6345313 25.6139297,30.6404688 25.6255781,30.6505295" id="Path" fill="#FFFFFF"></path>
                    <path d="M32.8505625,15.494401 C32.6433516,16.1955208 32.3483672,17.0927431 31.0352109,17.7706076 C30.8440781,17.8684115 30.7710703,17.7072743 30.8595,17.5555382 C31.3551328,16.7071354 31.4435625,16.4950347 31.5879375,16.1600608 C31.7895703,15.6710417 31.8950625,14.9750347 31.4939297,13.5228212 C30.7042969,10.6655642 29.0562891,6.84659722 27.8592891,5.60780382 C26.7031406,4.41222222 24.6092109,4.07559896 22.7164219,4.56395833 C22.0196484,4.74389757 20.6556328,5.45672743 18.1262812,4.88392361 C13.7494219,3.89269097 13.1007188,6.09616319 12.8498672,7.05605903 C12.5983594,8.01611979 11.9954297,10.744401 11.9954297,10.744401 C11.7942891,11.8550434 11.5311328,13.7872049 18.3274219,15.088342 C21.4935,15.6949566 21.6549375,16.5171354 21.7947188,17.109401 C22.0460625,18.1700694 22.4478516,18.776684 22.9000078,19.0794965 C23.3524922,19.3828038 22.9000078,19.6338281 22.3981406,19.6856163 C21.0497109,19.8261372 16.0661484,18.3894271 13.1177813,16.7054861 C10.7055703,15.2232552 10.6647188,13.8888021 11.2167891,12.7567188 C7.57328906,12.3605556 4.83885938,13.100599 4.3430625,14.8345139 C3.49207031,17.8105208 10.8520781,22.8938455 19.2320625,25.4444965 C28.0266328,28.1216493 37.0715625,26.2528212 38.0769375,20.6961458 C38.5338516,18.171059 36.4184297,16.3033854 32.8505625,15.494401 M19.3664297,10.0528472 C16.9404375,10.2294878 16.6884375,10.492717 16.2341484,10.9789323 C15.5936484,11.6650434 14.7497109,10.088967 14.7497109,10.088967 C14.2429219,9.98159722 13.629,9.16106771 13.9605703,8.39447049 C14.2865625,7.63611979 14.8894922,7.86388889 15.0784922,8.10006944 C15.3085078,8.38721354 15.7985625,8.85726563 16.4352891,8.84060764 C17.0718516,8.82328993 17.8063594,8.68887153 18.8309297,8.68887153 C19.8687891,8.68887153 20.5667109,9.07827257 20.6059219,9.41324653 C20.6397188,9.69890625 20.5219219,9.96889757 19.3664297,10.0528472 M21.9146484,6.02326389 C21.9107109,6.02392361 21.9069375,6.0244184 21.9034922,6.0244184 C21.8659219,6.0244184 21.8355703,5.99506076 21.8355703,5.95993056 C21.8355703,5.93453125 21.8509922,5.91226563 21.8737969,5.90220486 C22.344,5.65217014 23.0458594,5.45392361 23.8487813,5.37162326 C24.0897891,5.34671875 24.3252188,5.33385417 24.5517891,5.33171007 C24.5914922,5.33171007 24.6313594,5.33220486 24.6717188,5.33269965 C26.0178516,5.36337674 27.0955781,5.90105035 27.0795,6.53388889 C27.0634219,7.16672743 25.9599375,7.65492188 24.6136406,7.62440972 C24.1775625,7.61451389 23.7687188,7.55118056 23.4166406,7.44892361 C23.3751328,7.43836806 23.3447813,7.40224826 23.3447813,7.36002604 C23.3447813,7.31780382 23.3751328,7.28168403 23.4177891,7.27162326 C24.2577891,7.07618056 24.8241328,6.75671007 24.7844297,6.45505208 C24.7314375,6.05559028 23.6327109,5.83771701 22.3307109,5.96949653 C22.1881406,5.98384549 22.0488516,6.00215278 21.9146484,6.02326389" id="Shape" fill="#AE2129"></path>
                </g>
            </g>
        </g>
    </g>
</svg>