<?xml version="1.0" encoding="UTF-8"?>
<svg width="60px" height="60px" viewBox="0 0 60 60" version="1.1" xmlns="http://www.w3.org/2000/svg" xmlns:xlink="http://www.w3.org/1999/xlink">
    <!-- Generator: Sketch 46.1 (44463) - http://www.bohemiancoding.com/sketch -->
    <title>ubuntu_rounded</title>
    <desc>Created with Sketch.</desc>
    <defs>
        <ellipse id="path-1" cx="30" cy="30" rx="30" ry="30"/>
    </defs>
    <g id="Iland-Cloud" stroke="none" stroke-width="1" fill="none" fill-rule="evenodd">
        <g id="VM-Logo-Library" transform="translate(-43.000000, -43.000000)">
            <g id="ubuntu_rounded" transform="translate(43.000000, 43.000000)">
                <mask id="mask-2" fill="white">
                    <use xlink:href="#path-1"></use>
                </mask>
                <use id="Rectangle-13" fill="#DD4814" xlink:href="#path-1"></use>
                <path d="M41.9937573,17.859779 C42.894171,16.3100212 42.3604669,14.3292391 40.8008717,13.4345015 C39.2415892,12.5400756 37.2482319,13.0707226 36.3478183,14.6204804 C35.4477167,16.1696153 35.9817263,18.150398 37.5408531,19.0448233 C39.100292,19.9397173 41.093805,19.4089145 41.9937573,17.859779 Z M30.8676118,39.9958168 C29.4338056,39.9958168 28.0750381,39.6790478 26.8553693,39.1152443 L24.5897558,43.1496584 C26.4822285,44.0808206 28.6128126,44.6069537 30.8676118,44.6069537 C32.178919,44.6069537 33.4468356,44.4263869 34.6517832,44.09483 C34.8649773,42.7935068 35.6425869,41.5941409 36.8823027,40.8827712 C38.1198265,40.1728037 39.5520659,40.1024449 40.7917877,40.5680258 C43.2027682,38.2122576 44.7716103,35.0072038 45,31.4379041 L40.3530119,31.3706608 C39.9253619,36.2054792 35.8435633,39.9958168 30.8676118,39.9958168 Z M40.3530119,29.6918585 L45,29.6244599 C44.7712912,26.0554724 43.2024562,22.8504186 40.7911636,20.4948058 C39.5515975,20.9600755 38.1195145,20.8895608 36.8818344,20.1794369 C35.6422678,19.4683789 34.864821,18.2691689 34.6516269,16.9676899 C33.4468356,16.6364446 32.178919,16.4557225 30.8676118,16.4557225 C28.6128126,16.4557225 26.4823913,16.9816997 24.5900679,17.9131732 L26.8555251,21.9471197 C28.0750376,21.3833167 29.4338056,21.0665472 30.8676118,21.0665472 C35.8435633,21.0665445 39.9253619,24.8576603 40.3530119,29.6918585 Z M25.3930502,22.7883078 L23.0093278,18.8202057 C20.1559689,20.7147515 18.0332206,23.6106626 17.1515986,27.0028206 C18.1815661,27.8370059 18.8396486,29.1073524 18.8396486,30.5314918 C18.8396486,31.9554764 18.1814103,33.2258229 17.1514423,34.059853 C18.0329085,37.4521657 20.1556568,40.3480779 23.0091715,42.2426232 L25.3930502,38.2743657 C22.9444727,36.5619426 21.3430544,33.733744 21.3430544,30.5311812 C21.3430544,27.3290849 22.9444727,24.5008863 25.3930502,22.7883078 Z M37.541328,42.0173827 C35.9817263,42.9121197 35.4477167,44.8927465 36.347974,46.4418814 C37.2483947,47.9916387 39.2415892,48.5225974 40.8011838,47.6278603 C42.3603106,46.733278 42.894483,44.7524965 41.9940694,43.2028945 C41.0939613,41.653915 39.1004477,41.1229562 37.541328,42.0173827 Z M11,30.5314918 C11,32.3208117 12.4594969,33.7711027 14.2606498,33.7711027 C16.0611716,33.7711027 17.5208248,32.3208117 17.5208248,30.5314918 C17.5208248,28.7417054 16.0611716,27.2915709 14.2606498,27.2915709 C12.4594969,27.2915709 11,28.7417054 11,30.5314918 Z" id="circle-of-friends" fill="#FFFFFF" fill-rule="nonzero" mask="url(#mask-2)"></path>
            </g>
        </g>
    </g>
</svg>