<?xml version="1.0" encoding="UTF-8"?>
<svg width="60px" height="60px" viewBox="0 0 60 60" version="1.1" xmlns="http://www.w3.org/2000/svg" xmlns:xlink="http://www.w3.org/1999/xlink">
    <!-- Generator: sketchtool 53.1 (72631) - https://sketchapp.com -->
    <title>BD980478-A346-4790-89C6-0CE1FFC5A178</title>
    <desc>Created with sketchtool.</desc>
    <g id="Secure-Cloud-V9" stroke="none" stroke-width="1" fill="none" fill-rule="evenodd">
        <g id="VM-Logo-Library" transform="translate(-49.000000, -43.000000)">
            <g id="ubuntu_square" transform="translate(49.000000, 43.000000)">
                <path d="M0,6.0000383 C0,2.68630865 2.69463714,0 6.0000383,0 L60,0 L60,60 L6.0000383,60 C2.68630865,60 0,57.3053629 0,53.9999617 L0,6.0000383 Z" id="Rectangle-14" fill="#DD4814"></path>
                <path d="M44.4632439,14.8213396 C45.5225541,12.9649452 44.894667,10.5922436 43.0598491,9.52047239 C41.225399,8.44907453 38.8802728,9.08471587 37.8209626,10.9411102 C36.7620196,12.7967584 37.3902662,15.1694607 39.2245331,16.2408579 C41.059167,17.3128165 43.4044765,16.6769884 44.4632439,14.8213396 Z M31.373661,41.337235 C29.6868302,41.337235 28.0882802,40.9577899 26.6533756,40.2824317 L23.987948,45.1150988 C26.2143864,46.2305017 28.720956,46.860736 31.373661,46.860736 C32.9163753,46.860736 34.4080419,46.6444421 35.8256273,46.2472829 C36.0764439,44.6884787 36.9912787,43.2518052 38.4497679,42.3996832 C39.9056783,41.5492408 41.5906657,41.4649607 43.049162,42.0226619 C45.8856097,39.2007792 47.7313062,35.3615704 48,31.0860456 L42.5329552,31.0054975 C42.0298375,36.7969377 37.2277215,41.337235 31.373661,41.337235 Z M42.5329552,28.9945257 L48,28.9137915 C47.7309308,24.6386408 45.8852426,20.7994319 43.0484277,17.9777353 C41.5901147,18.5350637 39.9053111,18.4505969 38.4492169,17.5999672 C36.9909033,16.7482186 36.07626,15.3117318 35.8254434,13.7527408 C34.4080419,13.3559551 32.9163753,13.1394751 31.373661,13.1394751 C28.720956,13.1394751 26.214578,13.7695227 23.9883152,14.8852983 L26.6535589,19.7174054 C28.0882795,19.0420478 29.6868302,18.662602 31.373661,18.662602 C37.2277215,18.6625988 42.0298375,23.2038283 42.5329552,28.9945257 Z M24.9330003,20.7250318 L22.1286209,15.9717972 C18.7717281,18.2411997 16.2743772,21.7100985 15.2371749,25.7734321 C16.4489013,26.7726702 17.223116,28.2943687 17.223116,30.0002897 C17.223116,31.7060252 16.4487181,33.2277237 15.236991,34.2267757 C16.27401,38.2902948 18.771361,41.7591949 22.1284371,44.0285968 L24.9330003,39.2751761 C22.0523209,37.2239312 20.1682993,33.8361425 20.1682993,29.9999176 C20.1682993,26.1642514 22.0523209,22.7764627 24.9330003,20.7250318 Z M39.2250917,43.7587899 C37.3902662,44.8305605 36.7620196,47.2030761 37.8211459,49.0587243 C38.8804644,50.915118 41.225399,51.5511327 43.0602163,50.4793621 C44.8944831,49.4077769 45.5229212,47.035076 44.4636111,45.1788683 C43.4046604,43.3234061 41.0593503,42.6873914 39.2250917,43.7587899 Z M8,30.0002897 C8,32.1436461 9.71705521,33.880893 11.8360586,33.880893 C13.9543195,33.880893 15.6715586,32.1436461 15.6715586,30.0002897 C15.6715586,27.8563744 13.9543195,26.1193148 11.8360586,26.1193148 C9.71705521,26.1193148 8,27.8563744 8,30.0002897 Z" id="circle-of-friends" fill="#FFFFFF" fill-rule="nonzero"></path>
            </g>
        </g>
    </g>
</svg>