<?xml version="1.0" encoding="UTF-8"?>
<svg width="60px" height="60px" viewBox="0 0 60 60" version="1.1" xmlns="http://www.w3.org/2000/svg" xmlns:xlink="http://www.w3.org/1999/xlink">
    <!-- Generator: Sketch 46.1 (44463) - http://www.bohemiancoding.com/sketch -->
    <title>windowsxp_rounded</title>
    <desc>Created with Sketch.</desc>
    <defs>
        <ellipse id="path-1" cx="30" cy="30" rx="30" ry="30"/>
    </defs>
    <g id="Iland-Cloud" stroke="none" stroke-width="1" fill="none" fill-rule="evenodd">
        <g id="VM-Logo-Library" transform="translate(-43.000000, -367.000000)">
            <g id="windowsxp_rounded" transform="translate(43.000000, 367.000000)">
                <g id="Rectangle-13">
                    <use fill="#FFFFFF" fill-rule="evenodd" xlink:href="#path-1"></use>
                </g>
                <g id="xp"
                   transform="matrix(0.06504065,0,0,0.06504065,10,11.268)">
                    <path d="M 0.00 0.00 L 615.00 0.00 L 615.00 576.00 L 0.00 576.00 L 0.00 0.00 Z" fill="#ffffff" />
                    <path d="M 242.00 23.25 C 265.37 22.82 288.73 27.58 310.19 36.82 C 326.73 43.87 341.76 53.14 356.61 63.17 C 337.05 130.98 317.35 198.76 297.82 266.57 C 285.09 258.11 272.33 250.05 258.46 243.54 C 232.46 231.04 203.81 225.40 175.00 226.97 C 138.50 228.81 103.99 239.75 70.35 253.35 C 89.95 185.42 109.57 117.46 129.28 49.56 C 157.31 38.15 185.84 28.85 215.95 24.90 C 224.56 23.87 233.34 23.06 242.00 23.25 Z" fill="#ec5626" />
                    <path d="M 386.92 84.19 C 405.54 96.84 424.19 108.08 445.61 115.41 C 463.70 121.71 482.86 124.69 502.00 124.51 C 537.24 124.33 572.83 114.26 605.48 101.56 C 609.04 99.77 613.18 103.07 611.94 106.92 C 593.34 171.45 574.57 236.28 555.90 300.82 C 519.42 315.92 479.76 327.68 439.99 327.47 C 416.61 327.17 393.60 322.32 372.25 312.75 C 356.54 305.84 342.37 297.02 328.14 287.52 C 347.64 219.73 367.32 151.95 386.92 84.19 Z" fill="#4ca948" />
                    <path d="M 158.99 262.30 C 184.32 260.28 209.92 263.30 233.74 272.28 C 253.07 279.47 270.69 289.96 287.70 301.50 C 268.13 368.94 248.68 436.43 229.11 503.88 C 211.10 491.74 193.06 480.79 172.48 473.49 C 147.75 464.58 121.28 462.03 95.20 464.80 C 66.92 467.63 38.61 475.93 12.18 486.22 C 10.88 486.63 9.37 487.50 8.00 487.19 C 5.99 487.02 4.13 485.01 4.22 482.98 C 4.31 480.63 5.23 478.24 5.87 475.99 C 24.02 413.42 42.07 350.83 60.24 288.27 C 91.46 275.42 125.20 264.84 158.99 262.30 Z" fill="#006fb1" />
                    <path d="M 318.02 322.37 C 331.12 331.13 344.51 339.54 358.85 346.16 C 382.64 357.39 408.70 362.94 435.02 362.36 C 472.70 361.73 511.17 350.02 545.79 335.67 C 526.23 403.34 506.70 471.15 486.96 538.75 C 456.06 551.31 423.41 561.70 390.02 564.46 C 364.90 566.60 339.54 563.91 315.79 555.28 C 295.35 547.89 277.34 537.07 259.43 524.93 C 278.62 458.36 297.93 391.79 317.18 325.23 C 317.46 324.28 317.74 323.32 318.02 322.37 Z" fill="#fbb500" />
                </g>
            </g>
        </g>
    </g>
</svg>