<?xml version="1.0" encoding="UTF-8"?>
<svg width="60px" height="60px" viewBox="0 0 60 60" version="1.1" xmlns="http://www.w3.org/2000/svg" xmlns:xlink="http://www.w3.org/1999/xlink">
    <!-- Generator: sketchtool 53.1 (72631) - https://sketchapp.com -->
    <title>343D6FDF-BF9C-4E61-AB5A-F003AE193E24</title>
    <desc>Created with sketchtool.</desc>
    <defs>
        <linearGradient x1="0%" y1="0%" x2="100%" y2="100%" id="linearGradient-1">
            <stop stop-color="#33669A" offset="0%"></stop>
            <stop stop-color="#3299CC" offset="100%"></stop>
        </linearGradient>
    </defs>
    <g id="Secure-Cloud-V9" stroke="none" stroke-width="1" fill="none" fill-rule="evenodd">
        <g id="VM-Logo-Library" transform="translate(-49.000000, -367.000000)">
            <g id="windowsxp_square" transform="translate(49.000000, 367.000000)">
                <path d="M0,6.0000383 C0,2.68630865 2.69463714,0 6.0000383,0 L60,0 L60,60 L6.0000383,60 C2.68630865,60 0,57.3053629 0,53.9999617 L0,6.0000383 Z" id="Rectangle-14" fill="url(#linearGradient-1)"></path>
                <g id="Windows_logo_-_2002–2012_(Multicolored)" transform="translate(11.000000, 13.000000)" fill-rule="nonzero">
                    <path d="M39,4.91763644 C31.5233767,8.34733407 27.9284977,6.41929191 24.6884614,4 L21,18.1949558 C24.236864,20.6280751 28.1446663,22.6285226 35.3178831,19.0655791 L39,4.91763644 L39,4.91763644 Z" id="Path" fill="#91C300"></path>
                    <path d="M14.2632195,33 C11.0178524,30.5835787 7.48986601,28.5960754 0,32.0224079 L3.66748443,17.8500785 C11.1589356,14.4232449 14.7578034,16.3623948 18,18.7935977 L14.2632195,32.9997495 L14.2632195,33 Z" id="Path" fill="#00B4F1"></path>
                    <path d="M18.3200131,16 C16.3671914,14.618687 14.2670255,13.3293823 11.2843778,13.3056076 C9.31639171,13.2896785 6.97382054,13.8769148 4,15.168597 L7.68541897,1.75440745 C15.1678403,-1.49536315 18.7618197,0.343851521 22,2.64928904 L18.3200131,16 Z" id="Path" fill="#F8682C"></path>
                    <path d="M19.6775874,21 C22.9190005,23.2921761 26.5195893,25.1179252 34,21.8705369 L30.312901,35.2458852 C22.8311316,38.4958898 19.2380162,36.6553939 16,34.3491845 L19.6775874,21 Z" id="Path" fill="#FFC300"></path>
                </g>
            </g>
        </g>
    </g>
</svg>